<?xml version="1.0" encoding="UTF-8"?>
<svg version="1.1" xmlns="http://www.w3.org/2000/svg" width="722" height="346">
<path d="M0 0 C0.99 0.33 1.98 0.66 3 1 C3.89385656 3.59188507 4.58209673 6.02796579 5.1875 8.6875 C5.36474609 9.39583984 5.54199219 10.10417969 5.72460938 10.83398438 C6.21436604 12.88188579 6.62137793 14.92898915 7 17 C7.19464844 18.00675781 7.38929688 19.01351562 7.58984375 20.05078125 C6.61505153 24.92474237 3.01731196 27.32899125 -0.625 30.5 C-2.18920714 31.91478151 -3.75167959 33.33148305 -5.3125 34.75 C-6.10011719 35.45898438 -6.88773437 36.16796875 -7.69921875 36.8984375 C-18.53965925 46.80023205 -28.37202152 57.44601628 -37.30078125 69.09375 C-37.86152344 69.7228125 -38.42226563 70.351875 -39 71 C-39.66 71 -40.32 71 -41 71 C-41.21398437 71.52078125 -41.42796875 72.0415625 -41.6484375 72.578125 C-43.55805943 75.99999089 -46.06675888 78.79568602 -48.625 81.75 C-49.140625 82.35199219 -49.65625 82.95398438 -50.1875 83.57421875 C-51.45469135 85.05260866 -52.72685775 86.52673171 -54 88 C-50.06994632 93.51748712 -45.77823501 98.57446948 -41.2109375 103.57421875 C-39.3378959 105.62926969 -37.50415391 107.70783999 -35.6875 109.8125 C-28.10725293 118.5033414 -20.23090036 126.92330855 -12 135 C-11.13375 135.886875 -10.2675 136.77375 -9.375 137.6875 C-7.52676049 139.48710163 -5.69270639 141.07959557 -3.6875 142.6875 C-2.800625 143.450625 -1.91375 144.21375 -1 145 C-1 145.66 -1 146.32 -1 147 C-0.1646875 147.3403125 -0.1646875 147.3403125 0.6875 147.6875 C3 149 3 149 5.25 151.3125 C8.52685128 154.51487739 12.06078085 156.70293672 16 159 C16.268125 157.90945312 16.53625 156.81890625 16.8125 155.6953125 C19.75853957 144.18436525 23.87847743 133.70225074 29 123 C29.58513438 121.73851257 30.16979462 120.47680507 30.75390625 119.21484375 C34.74179995 110.85969756 39.54774966 103.44275443 45 96 C49.62973364 96.90155324 52.24509313 99.37079411 55.75 102.375 C56.35199219 102.87 56.95398438 103.365 57.57421875 103.875 C59.11227225 105.17938097 60.56364788 106.58440441 62 108 C62 112.30962419 59.60500792 115.0127878 57.3125 118.5 C53.27621475 124.82435709 49.76726419 131.00590849 47 138 C46.69320312 138.77037598 46.38640625 139.54075195 46.0703125 140.33447266 C37.70654704 157.39750382 37.70654704 157.39750382 37 175 C39.60332697 177.14116693 42.48442111 178.70324436 45.4375 180.3125 C46.29279297 180.78961426 47.14808594 181.26672852 48.02929688 181.75830078 C67.87947963 192.65107031 87.40516912 199.06164703 110 201 C110.0825 199.80375 110.165 198.6075 110.25 197.375 C112.44765799 179.02312877 121.69130973 163.29635735 133 149 C133.680625 148.12601563 134.36125 147.25203125 135.0625 146.3515625 C137.15850161 143.80762506 139.31592694 141.90710454 142 140 C142.66 140 143.32 140 144 140 C144.38671875 139.09894531 144.38671875 139.09894531 144.78125 138.1796875 C146.903049 134.38493159 150.45980057 132.40206425 154 130 C154.71027344 129.51402344 155.42054688 129.02804688 156.15234375 128.52734375 C169.11508958 120.2178913 183.38184197 114.95776984 198.75 114.6875 C199.48412109 114.66953369 200.21824219 114.65156738 200.97460938 114.63305664 C205.51090953 114.64083849 208.39813765 115.20452475 212 118 C216.51363333 123.96444405 216.16309836 130.12194186 215.25 137.25 C215.15565674 138.00361816 215.06131348 138.75723633 214.96411133 139.53369141 C212.68883574 156.533381 204.8272971 171.85256781 194 185 C193.505 185.61875 193.01 186.2375 192.5 186.875 C184.25351382 196.91420057 173.52003129 203.92750544 162.5625 210.6875 C161.97847412 211.05601074 161.39444824 211.42452148 160.79272461 211.80419922 C151.96262619 217.14781276 142.43085509 219.65067629 132.3125 221.25 C130.72852417 221.50040039 130.72852417 221.50040039 129.11254883 221.75585938 C88.53635838 227.82633745 49.85296041 212.7318167 17.35644531 189.0456543 C15.56135275 187.70922272 13.77832404 186.35862226 12 185 C11.1853125 184.3915625 10.370625 183.783125 9.53125 183.15625 C7.32185287 181.47447009 5.1609139 179.74377546 3 178 C1.63554289 176.91911147 0.27094504 175.83840061 -1.09375 174.7578125 C-2.58383112 173.56833165 -4.07340994 172.37822131 -5.5625 171.1875 C-6.29090088 170.61136963 -7.01930176 170.03523926 -7.76977539 169.44165039 C-8.44516357 168.89758545 -9.12055176 168.35352051 -9.81640625 167.79296875 C-10.42943604 167.3033667 -11.04246582 166.81376465 -11.67407227 166.30932617 C-12.11162842 165.87724854 -12.54918457 165.4451709 -13 165 C-13 164.34 -13 163.68 -13 163 C-13.55042969 162.76539063 -14.10085938 162.53078125 -14.66796875 162.2890625 C-21.94057532 158.26902872 -28.04355324 151.15920792 -33.328125 144.85546875 C-35.07702173 142.91452028 -36.92962817 141.2943353 -38.9375 139.625 C-42.86607102 136.30198906 -45.86037679 132.53888076 -48.99609375 128.4765625 C-50.89985548 126.12376535 -52.88896503 124.03984018 -55.0625 121.9375 C-58.45648174 118.64256442 -61.29276641 115.14341674 -64.13671875 111.37109375 C-66.91077681 107.8410031 -69.94397141 104.5625765 -72.984375 101.26171875 C-78 95.63372093 -78 95.63372093 -78 93 C-79.32 92.34 -80.64 91.68 -82 91 C-82.30780141 87.91118588 -82.30977445 86.44092571 -80.49609375 83.859375 C-79.81675781 83.16328125 -79.13742187 82.4671875 -78.4375 81.75 C-75.54717874 78.6860552 -72.85459042 75.60959086 -70.3125 72.25 C-67.74875772 68.8934074 -64.9882674 65.9882674 -62 63 C-60.21804066 60.78413567 -58.49049695 58.53097433 -56.76171875 56.2734375 C-52.81250559 51.17711364 -48.55683938 46.55683938 -44 42 C-42.84829438 40.67173573 -41.70290697 39.33797748 -40.5625 38 C-37.63045251 34.60566425 -34.44814427 31.87345356 -31 29 C-29.87665024 27.74609143 -28.77382946 26.47361419 -27.6875 25.1875 C-23.86510224 20.70812762 -19.68114385 16.58474559 -15 13 C-14.34 13 -13.68 13 -13 13 C-12.75121094 12.41476563 -12.50242187 11.82953125 -12.24609375 11.2265625 C-10.82558144 8.68834301 -9.2779547 7.24802874 -7.0625 5.375 C-6.37285156 4.78460938 -5.68320312 4.19421875 -4.97265625 3.5859375 C-3 2 -3 2 0 0 Z M150.8515625 162.14453125 C141.78359581 171.7857602 134.2452623 184.83894122 132 198 C138.01099058 197.48842633 142.62471289 195.68357753 148 193 C149.02738281 192.49210937 150.05476563 191.98421875 151.11328125 191.4609375 C170.04123107 181.71893748 183.32264737 166.69338158 191.25 146.875 C192.05112557 143.80401863 192.15048654 141.16021742 192 138 C175.47774353 138 161.79805633 151.21794013 150.8515625 162.14453125 Z " fill="#919090" transform="translate(358,48)"/>
<path d="M0 0 C7.26 0 14.52 0 22 0 C22.99 8.25 23.98 16.5 25 25 C26.98 24.67 28.96 24.34 31 24 C31 23.34 31 22.68 31 22 C51.21824926 12.15037779 70.44600404 3.89056272 93 1 C94.17469444 3.34938888 94.20034889 4.95073205 94.31640625 7.5703125 C94.35830078 8.46621094 94.40019531 9.36210937 94.44335938 10.28515625 C94.48267578 11.22230469 94.52199219 12.15945313 94.5625 13.125 C94.60568359 14.06988281 94.64886719 15.01476563 94.69335938 15.98828125 C94.79959072 18.32537092 94.90163176 20.6625683 95 23 C94.14921875 23.21914063 93.2984375 23.43828125 92.421875 23.6640625 C89.05723701 24.54459542 85.69961692 25.44604123 82.34472656 26.36279297 C80.76491885 26.7921243 79.18348497 27.21551079 77.60058594 27.63330078 C63.47533456 31.38822125 51.16732477 36.71321729 38.890625 44.65234375 C35.70962548 46.6692478 32.65334241 47.99533084 29 49 C31.66671361 59.20368839 35.02602287 69.01620773 38.9375 78.8125 C39.54730713 80.34861938 39.54730713 80.34861938 40.16943359 81.91577148 C44.21100119 91.88523832 48.59585243 101.33556506 55 110 C55 110.66 55 111.32 55 112 C55.66 112 56.32 112 57 112 C58.2890625 113.75 58.2890625 113.75 59.625 116 C60.07101562 116.7425 60.51703125 117.485 60.9765625 118.25 C61.31429687 118.8275 61.65203125 119.405 62 120 C65.55193577 118.67394398 68.86334444 117.05423525 72.21337891 115.28369141 C98.47510737 101.53249696 127.81955615 97.65415003 156.4140625 106.2890625 C170.37687386 110.79070865 183.59238621 117.54890655 192.8125 129.3125 C194.44967521 133.01768601 194.96886324 136.08944329 194 140 C192.07009324 143.39780554 189.66696562 146.15798258 187 149 C186.45601562 149.6084375 185.91203125 150.216875 185.3515625 150.84375 C170.76309614 165.3662052 144.91408514 170.75551791 125.0625 171.375 C110.07569735 170.87264907 95.77840207 167.86370928 82 162 C81.31421875 161.70996094 80.6284375 161.41992188 79.921875 161.12109375 C69.45939 156.57817263 61.40259627 150.63225952 53 143 C52.14664063 142.3503125 51.29328125 141.700625 50.4140625 141.03125 C47.63235647 138.69065593 45.69812619 136.18886527 43.5625 133.25 C42.84191406 132.26515625 42.12132812 131.2803125 41.37890625 130.265625 C40.81260498 129.47949829 40.81260498 129.47949829 40.23486328 128.67749023 C39.37379564 127.50777972 38.48995947 126.35463719 37.58935547 125.21508789 C33.34575144 119.79761814 30.13519422 114.05234472 27 107.9375 C26.20964355 106.39872192 26.20964355 106.39872192 25.40332031 104.82885742 C13.980888 82.33275583 7.11183804 57.8640026 3 33 C2.85191895 32.1116748 2.70383789 31.22334961 2.55126953 30.30810547 C0.89362329 20.14632364 -0.4130232 10.32557998 0 0 Z M80 136 C95.20667338 148.2577157 117.38204679 149.54068428 136 148 C145.94618771 146.65833799 160.19392966 143.80097763 167 136 C141.17098513 118.82757595 106.19854479 119.92362024 80 136 Z " fill="#90908F" transform="translate(363,0)"/>
<path d="M0 0 C2.4095692 1.62277109 4.03663471 2.94903049 6 5 C6.54269531 5.53367188 7.08539062 6.06734375 7.64453125 6.6171875 C17.77656471 17.27526333 22.64539809 29.98385011 26 44 C26.23460937 44.96550781 26.46921875 45.93101562 26.7109375 46.92578125 C30.75195665 66.22311184 28.07238941 84.22609658 23 103 C22.81050781 103.85722656 22.62101563 104.71445312 22.42578125 105.59765625 C19.12984797 119.22552221 10.12261652 131.66476574 1 142 C0.46246094 142.75539063 -0.07507813 143.51078125 -0.62890625 144.2890625 C-1.08136719 144.85367188 -1.53382813 145.41828125 -2 146 C-2.66 146 -3.32 146 -4 146 C-4.2578125 146.59296875 -4.515625 147.1859375 -4.78125 147.796875 C-6.10612165 150.1918353 -7.41606651 151.49061353 -9.5 153.25 C-10.55574219 154.14332031 -10.55574219 154.14332031 -11.6328125 155.0546875 C-25.10779809 166.12819051 -25.10779809 166.12819051 -30.35791016 166.11352539 C-31.70908432 166.11341209 -31.70908432 166.11341209 -33.08755493 166.11329651 C-34.06155243 166.10813522 -35.03554993 166.10297394 -36.0390625 166.09765625 C-37.03505463 166.0962413 -38.03104675 166.09482635 -39.05722046 166.09336853 C-42.24651053 166.08775936 -45.43573106 166.0752053 -48.625 166.0625 C-50.78385315 166.05748618 -52.94270741 166.05292307 -55.1015625 166.04882812 C-60.4010655 166.03778695 -65.70052778 166.02103988 -71 166 C-67.36487721 163.16863549 -63.50962375 161.18319265 -59.375 159.1875 C-47.00570924 153.08136995 -34.98882239 146.10744455 -25.23828125 136.19140625 C-23 134 -23 134 -21 134 C-21.54498539 130.07610521 -22.62623513 128.10415406 -25 125 C-25.72692422 123.3478995 -26.44858763 121.69294727 -27.125 120.01953125 C-28.09008683 117.79207638 -29.22526369 115.70029095 -30.375 113.5625 C-42.02103118 90.3759908 -43.42073545 61.4178594 -35.74609375 36.73828125 C-30.85187458 22.33715722 -23.68745948 8.72191066 -10.9375 -0.125 C-7.05449118 -1.28164093 -3.81675142 -1.23641243 0 0 Z M-7 27 C-18.16824357 47.6612506 -21.52485477 70.06321862 -14.89453125 92.7890625 C-12.79629403 99.47193979 -10.3883666 105.8507421 -7 112 C-3.86739607 111.29989541 -3.86739607 111.29989541 -2.53515625 108.76953125 C-2.04917969 107.79371094 -1.56320312 106.81789063 -1.0625 105.8125 C-0.33740234 104.39904297 -0.33740234 104.39904297 0.40234375 102.95703125 C4.96847891 92.33910727 6.68128057 82.10159216 6.57641602 70.66870117 C6.56252271 68.56593765 6.59681628 66.46762802 6.63476562 64.36523438 C6.70996537 51.09339825 3.5002055 37.59409777 -5 27 C-5.66 27 -6.32 27 -7 27 Z " fill="#919190" transform="translate(606,180)"/>
<path d="M0 0 C0.74435303 0.00902344 1.48870605 0.01804688 2.25561523 0.02734375 C26.449746 0.76727257 47.86852511 15.40183219 64.0625 32.4375 C67.97847851 36.91204967 71.60008643 41.60580441 75.0625 46.4375 C75.59442963 47.09839127 76.12635925 47.75928253 76.67440796 48.44020081 C78.80716147 53.04544325 78.51315348 57.50582783 78.51416016 62.52319336 C78.52584229 63.64260315 78.53752441 64.76201294 78.54956055 65.91534424 C78.5831743 69.61943112 78.59388928 73.3231177 78.6015625 77.02734375 C78.6137464 79.6098291 78.62623252 82.19231304 78.63900757 84.77479553 C78.66149639 90.19438601 78.67111417 95.6138168 78.67333984 101.03344727 C78.67636357 107.26563928 78.71667006 113.49683151 78.77448809 119.72873396 C78.82837203 125.75211897 78.84292282 131.77496199 78.84345627 137.79861641 C78.84881573 140.34652253 78.8655714 142.89443282 78.89430618 145.44218254 C79.16062899 171.21716082 79.16062899 171.21716082 71.0625 182.4375 C70.0625 183.4375 70.0625 183.4375 67.74584961 183.55102539 C66.74561768 183.54578857 65.74538574 183.54055176 64.71484375 183.53515625 C63.63525391 183.53193359 62.55566406 183.52871094 61.44335938 183.52539062 C60.30705078 183.51701172 59.17074219 183.50863281 58 183.5 C56.85982422 183.49548828 55.71964844 183.49097656 54.54492188 183.48632812 C51.71739649 183.47449747 48.8899736 183.4580141 46.0625 183.4375 C47.73701042 177.89014755 50.21557517 173.00195981 52.87695312 167.88671875 C58.0309014 157.81624015 61.81465604 147.80629532 64.25 136.75 C64.63115967 135.06511475 64.63115967 135.06511475 65.02001953 133.34619141 C66.98005359 124.4219712 68.32715878 115.54051712 69.0625 106.4375 C67.53882813 106.19966797 67.53882813 106.19966797 65.984375 105.95703125 C52.97997023 103.80443583 42.15660764 99.66195633 31.0625 92.4375 C30.07765625 91.82519531 29.0928125 91.21289062 28.078125 90.58203125 C14.9724577 82.06334751 3.69187702 71.15347143 -3.9375 57.4375 C-4.45441406 56.63183594 -4.97132813 55.82617188 -5.50390625 54.99609375 C-12.97289617 43.33398667 -16.11608794 32.05500778 -16.125 18.375 C-16.13724609 17.38177734 -16.14949219 16.38855469 -16.16210938 15.36523438 C-16.16404297 14.40810547 -16.16597656 13.45097656 -16.16796875 12.46484375 C-16.17207764 11.59593506 -16.17618652 10.72702637 -16.18041992 9.83178711 C-15.91501987 7.21592948 -15.35217427 5.6439113 -13.9375 3.4375 C-9.40917334 0.47020125 -5.29671582 -0.07775887 0 0 Z M6.0625 23.4375 C8.68998585 37.50759427 14.75627748 49.45873271 25.0625 59.4375 C25.83335937 60.27667969 26.60421875 61.11585938 27.3984375 61.98046875 C36.90441017 72.14786023 48.9598554 78.92759364 62.0625 83.4375 C63.3825 83.4375 64.7025 83.4375 66.0625 83.4375 C61.56228814 60.03639833 46.82374886 43.9417841 28.0625 30.4375 C21.84761789 26.52253314 13.56567597 22.7113862 6.0625 23.4375 Z " fill="#919190" transform="translate(643.9375,162.5625)"/>
<path d="M0 0 C6.93 0 13.86 0 21 0 C21 0.99 21 1.98 21 3 C21.969375 2.938125 22.93875 2.87625 23.9375 2.8125 C28.65958394 2.8219821 32.6336564 4.32128839 37 6 C37.83450684 6.31831787 38.66901367 6.63663574 39.52880859 6.96459961 C58.04585824 14.20771135 74.67094909 25.11559487 87 41 C87.63679687 41.75539062 88.27359375 42.51078125 88.9296875 43.2890625 C100.14003757 57.37833515 107.10082974 75.49995575 107.375 93.4375 C107.38926025 94.20787598 107.40352051 94.97825195 107.41821289 95.77197266 C107.37777002 100.32054727 106.9425044 103.31667684 104 107 C95.6121151 112.17550345 85.81720575 110.47069914 76.625 108.4375 C68.40519422 106.46206993 61.36179828 103.17807139 54 99 C52.60974609 98.23816406 52.60974609 98.23816406 51.19140625 97.4609375 C45.50629751 94.22466555 40.79052253 90.42703931 36 86 C33.72632298 84.02871437 31.4520327 82.05815625 29.17578125 80.08984375 C12.70424343 64.26888731 1.50626676 40.33741442 0.046875 17.5546875 C-0.06058109 11.69833085 -0.05325144 5.85765821 0 0 Z M24 26 C26.26126099 41.8288269 36.75406625 58.92173728 49 69 C49.66 69 50.32 69 51 69 C51.185625 69.556875 51.37125 70.11375 51.5625 70.6875 C55.28902099 76.68233811 62.82268916 79.56989757 69.0625 82.3125 C69.83916016 82.67150391 70.61582031 83.03050781 71.41601562 83.40039062 C75.78179429 85.34114744 79.12138085 86.46054165 84 86 C82.89883534 71.13427711 73.73248491 55.59919654 62.609375 45.796875 C59.54228915 43.32801333 56.28948047 41.16202054 53 39 C51.75669922 38.0409375 51.75669922 38.0409375 50.48828125 37.0625 C43.25693248 31.51647384 33.28146818 26 24 26 Z " fill="#919190" transform="translate(466,0)"/>
<path d="M0 0 C0.307234 7.82366849 0.51561019 15.64575491 0.65917969 23.47412109 C0.71228736 26.13232121 0.80054345 28.78250031 0.90527344 31.43994141 C1.91531524 57.75054021 1.91531524 57.75054021 -7.39031982 68.36291504 C-8.42046662 69.44735918 -9.46909685 70.51465557 -10.53852844 71.56037903 C-12.62409996 73.61476898 -14.45146601 75.86827324 -16.3125 78.125 C-19.6427919 81.7473008 -23.11878122 84.97264935 -27 88 C-27.66 88 -28.32 88 -29 88 C-29 88.66 -29 89.32 -29 90 C-31.24347991 91.54106785 -33.46643469 92.94328314 -35.8125 94.3125 C-36.50029541 94.71621826 -37.18809082 95.11993652 -37.89672852 95.53588867 C-51.70890866 103.53868162 -67.67236835 110.25593816 -84 108 C-88.43048295 106.58748211 -91.36307627 104.95538559 -94 101 C-96.95833885 78.13378085 -89.14383088 57.74262536 -75.34765625 39.75 C-60.56396237 22.43266141 -43.04332041 10.84191692 -21.5 3.5625 C-20.77087402 3.3154834 -20.04174805 3.0684668 -19.29052734 2.81396484 C-12.88132749 0.75674512 -6.74863358 -0.06332303 0 0 Z M-51.26953125 46.15234375 C-53.22786058 47.82137915 -53.22786058 47.82137915 -53 50 C-53.66 50 -54.32 50 -55 50 C-60.3771082 55.84413403 -64.06366938 62.6919417 -67.4375 69.8125 C-67.7792627 70.52913818 -68.12102539 71.24577637 -68.47314453 71.98413086 C-70.3050246 75.98548964 -71.5072389 79.57903072 -72 84 C-65.48553932 83.53925229 -60.47770935 82.36162739 -54.625 79.5 C-53.89039551 79.14615234 -53.15579102 78.79230469 -52.39892578 78.42773438 C-38.54592245 71.49060225 -29.49196972 60.61547425 -21 48 C-20.54625 47.38898437 -20.0925 46.77796875 -19.625 46.1484375 C-14.97886881 39.55673887 -13.1856561 31.66374735 -11 24 C-26.21864365 24 -40.75794829 36.67687866 -51.26953125 46.15234375 Z " fill="#909090" transform="translate(722,2)"/>
<path d="M0 0 C0.91644287 0.00523682 1.83288574 0.01047363 2.77709961 0.01586914 C3.76645508 0.0190918 4.75581055 0.02231445 5.77514648 0.02563477 C6.81606445 0.03401367 7.85698242 0.04239258 8.92944336 0.05102539 C10.49662109 0.05779297 10.49662109 0.05779297 12.09545898 0.06469727 C14.68600996 0.07652627 17.27644895 0.0930085 19.86694336 0.11352539 C19.72256836 0.89211914 19.57819336 1.67071289 19.42944336 2.47290039 C16.05424274 22.81785968 16.51677402 44.65193807 26.86694336 63.11352539 C27.85694336 63.77352539 28.84694336 64.43352539 29.86694336 65.11352539 C41.62619121 43.35891686 41.87027775 24.14020052 38.86694336 0.11352539 C45.79694336 0.11352539 52.72694336 0.11352539 59.86694336 0.11352539 C67.33059271 22.50447346 63.73683888 47.41875563 54.10131836 68.65258789 C50.13448978 76.56113854 44.95363971 82.69627812 38.86694336 89.11352539 C38.34358398 89.68458008 37.82022461 90.25563477 37.28100586 90.84399414 C34.93786026 92.94764696 32.68823924 93.13070848 29.61694336 93.42602539 C22.22915189 92.8103761 17.68447554 88.65272026 13.05053711 83.18774414 C5.61676495 72.72195042 -0.32793546 60.65502648 -3.13305664 48.11352539 C-3.46563477 46.67299805 -3.46563477 46.67299805 -3.80493164 45.20336914 C-6.43847677 31.41284565 -6.88203337 14.76855742 -3.13305664 1.11352539 C-2.13305664 0.11352539 -2.13305664 0.11352539 0 0 Z " fill="#919191" transform="translate(571.133056640625,-0.113525390625)"/>
<path d="M0 0 C0 6.93 0 13.86 0 21 C-3.96 21.1546875 -3.96 21.1546875 -8 21.3125 C-22.01401268 22.04053383 -35.56744841 24.08101477 -48 31 C-48.66 31.99 -49.32 32.98 -50 34 C-37.21069939 41.04421975 -24.58642034 43.96413497 -10.125 44.5625 C-6.78375 44.706875 -3.4425 44.85125 0 45 C0 52.26 0 59.52 0 67 C-10.69410278 72.34705139 -31.93678957 65.86226093 -42.7109375 62.2890625 C-55.71623599 57.19197402 -71.41633475 50.1673305 -78 37 C-78.40310513 32.16273845 -78.47543282 29.90168293 -76.1875 25.5625 C-74 23 -74 23 -71 22 C-70.67 21.01 -70.34 20.02 -70 19 C-56.25061014 6.47871099 -18.91420634 -9.45710317 0 0 Z " fill="#90908F" transform="translate(722,103)"/>
<path d="M0 0 C5.31941147 5.00964654 9.49479427 10.29124168 10.50390625 17.69921875 C10.63573717 26.67250998 10.17717893 33.88281558 4 41 C0.85773227 43.51686493 -2.34359711 45.33417171 -6 47 C-6.99 47.45375 -7.98 47.9075 -9 48.375 C-18.69308373 50.39439244 -26.61535857 48.51172267 -34.875 43.125 C-40.90098931 37.09901069 -44.07078334 30.07818376 -44.5 21.625 C-44.33079898 15.53376318 -42.17739022 11.10420412 -39 6 C-38.443125 5.071875 -37.88625 4.14375 -37.3125 3.1875 C-27.44577958 -6.14588418 -11.20296009 -8.11168687 0 0 Z " fill="#929191" transform="translate(617,114)"/>
<path d="M0 0 C5.66606409 0.14528369 8.62909447 2.78669563 12.75390625 6.30859375 C14.94278661 8.13107321 14.94278661 8.13107321 17.71484375 8.97265625 C20 10 20 10 20.66943359 11.72314453 C21.06138084 14.42277524 20.8607483 16.74163002 20.57421875 19.45703125 C19.76019627 28.85958081 19.8051263 38.25530363 19.8125 47.6875 C19.8117749 48.63355103 19.8110498 49.57960205 19.81030273 50.55432129 C19.81151949 64.9479033 20.27563774 79.17775547 21.81640625 93.50097656 C22.0484434 96.65939709 22 99.8330675 22 103 C14.74 103 7.48 103 0 103 C-9.04445244 30.9287972 -9.04445244 30.9287972 0 0 Z " fill="#8E8E8E" transform="translate(366,243)"/>
<path d="M0 0 C0.11480713 0.59200195 0.22961426 1.18400391 0.34790039 1.79394531 C4.76356497 24.18505343 11.88474979 43.69696035 22.10131836 64.0925293 C23 66 23 66 23 67 C15.08 67 7.16 67 -1 67 C-11.70904376 45.94493092 -19.84741947 25.92598208 -21 2 C-14.17841487 -0.22442993 -7.04946768 -1.91296285 0 0 Z " fill="#919191" transform="translate(488,279)"/>
<path d="M0 0 C4.49857509 0.51875461 6.83540495 2.16717574 10.3125 5 C21.43535588 13.72608251 34.33454286 19.84537942 47 26 C47 26.33 47 26.66 47 27 C40.73811301 27.15280501 34.47671098 27.25748702 28.21337891 27.32958984 C26.08526645 27.35966346 23.95727693 27.40053411 21.82958984 27.45263672 C18.76108396 27.52586732 15.6942238 27.55955099 12.625 27.5859375 C11.68197021 27.61690521 10.73894043 27.64787292 9.76733398 27.67977905 C2.74991953 27.68331131 -0.87744056 25.6757963 -6 21 C-6.99 20.21625 -7.98 19.4325 -9 18.625 C-9.66 18.08875 -10.32 17.5525 -11 17 C-10.50521514 12.54693628 -9.20056327 11.02755985 -6 8 C-3.93557545 5.38035124 -1.9631804 2.69610108 0 0 Z " fill="#939392" transform="translate(619,319)"/>
<path d="M0 0 C3.49189832 3.85946657 4.85473122 7.57956549 5.234375 12.6875 C4.72072692 17.75549438 1.55848261 21.38956797 -1.875 24.9375 C-6.59659413 27.29829706 -10.711326 27.31547142 -15.6875 25.875 C-20.44544367 24.11610089 -22.74163776 21.51672448 -25 17 C-25.55845758 11.02879973 -25.48058514 6.0965711 -22 1 C-15.69363529 -4.89950247 -7.17771031 -4.06285489 0 0 Z " fill="#8D8C8C" transform="translate(543,286)"/>
<path d="M0 0 C3.51515721 3.0129919 5.69408644 6.33815653 6.57421875 10.86328125 C6.86277802 15.98769589 5.53558325 19.97384105 2.1875 23.875 C-1.71171377 27.22141384 -5.70107217 28.55624822 -10.82421875 28.2578125 C-15.55473992 27.34702453 -18.81715069 25.19142973 -21.75 21.3125 C-23.66107223 15.12961925 -23.91015936 9.33375696 -21.25 3.375 C-15.00033616 -3.03491163 -7.90403436 -3.16161375 0 0 Z " fill="#8C8C8C" transform="translate(445.8125,191.125)"/>
<path d="M0 0 C3.99569466 2.57845742 5.78324366 6.06521908 7.25 10.5 C8.20642156 15.60091501 6.41236423 18.62024062 3.6015625 22.734375 C0.96701933 26.17603255 -0.83371607 27.27525111 -5.0625 28.3125 C-10.49914215 28.58893943 -14.11537028 27.66240336 -18.5625 24.5 C-21.57394108 20.37002366 -22.58788351 16.59508955 -22.75 11.5 C-22.15952793 8.35766169 -21.27202685 6.38660264 -19.75 3.5 C-18.76 3.17 -17.77 2.84 -16.75 2.5 C-16.75 1.84 -16.75 1.18 -16.75 0.5 C-11.22744684 -2.26127658 -5.56771082 -2.70022027 0 0 Z " fill="#8B8A8A" transform="translate(675.75,284.5)"/>
<path d="M0 0 C4.32899298 3.04997232 7.14100394 6.08483425 8.26953125 11.37109375 C8.58164569 16.13991209 8.06251247 19.19702675 5 22.9375 C1.65366259 26.45284435 -1.61434946 28.2256186 -6.5 28.375 C-11.62760937 28.26481996 -15.47536369 26.37721655 -19.25 22.9375 C-22.23684162 18.36481088 -21.86713897 13.19460978 -21.25 7.9375 C-16.82060795 -1.24938721 -9.22578516 -3.01612207 0 0 Z " fill="#8E8D8D" transform="translate(444.25,55.0625)"/>
<path d="M0 0 C3.12813702 2.10967381 4.31095599 3.2946653 5.6875 6.8125 C6.3527183 11.32941436 6.33467451 14.66749894 4.0625 18.6875 C0.53603191 21.84276092 -2.54640549 23.54946465 -7.25 24.25 C-11.24186121 23.67973411 -14.31796334 22.49103028 -17.3125 19.8125 C-19.47686353 16.57312147 -20.44357743 13.52260327 -20.14453125 9.62109375 C-19.3530333 5.94773145 -18.45727287 2.98965045 -15.3125 0.8125 C-14.755625 0.420625 -14.19875 0.02875 -13.625 -0.375 C-8.83081862 -2.05944211 -4.66379747 -1.67192739 0 0 Z " fill="#8D8C8B" transform="translate(367.3125,125.1875)"/>
<path d="M0 0 C3.15989924 2.56741813 5.6822859 4.77146252 6.2734375 8.91796875 C6.51541591 14.3252555 5.69682113 17.39331313 2.38671875 21.6875 C-0.58249379 24.49779694 -4.17668626 24.20371375 -8.05859375 24.16796875 C-10.39649701 23.96569543 -12.05115996 23.29922669 -14 22 C-14 21.34 -14 20.68 -14 20 C-14.99 19.67 -15.98 19.34 -17 19 C-18.59546467 15.52576385 -19.34207522 11.72353282 -18.59375 7.953125 C-17.15336445 4.28953566 -15.42005735 1.92378226 -12 0 C-7.82507137 -1.39164288 -4.24477353 -1.10959869 0 0 Z " fill="#8F8E8F" transform="translate(437,297)"/>
<path d="M0 0 C0.33 0 0.66 0 1 0 C1.66 8.58 2.32 17.16 3 26 C3.66 26 4.32 26 5 26 C5.33 27.98 5.66 29.96 6 32 C4.68 32.99 3.36 33.98 2 35 C-0.45913482 23.36302275 -0.20714199 11.83418115 0 0 Z " fill="#4E4E4D" transform="translate(566,13)"/>
<path d="M0 0 C-3.29872978 2.19915319 -6.40607025 3.04642609 -10.1875 4 C-11.1930896 4.26055176 -11.1930896 4.26055176 -12.21899414 4.52636719 C-14.1444388 5.02364738 -16.07217141 5.51204339 -18 6 C-18.91265625 6.23203125 -19.8253125 6.4640625 -20.765625 6.703125 C-22.50876125 7.1420442 -24.25404775 7.57241986 -26 8 C-25.375 6.0625 -25.375 6.0625 -24 4 C-20.9375 3.375 -20.9375 3.375 -18 3 C-17.67 2.34 -17.34 1.68 -17 1 C-11.20563241 -0.8981549 -5.92361979 -1.28774343 0 0 Z " fill="#757474" transform="translate(451,24)"/>
<path d="M0 0 C0.33 0.66 0.66 1.32 1 2 C-0.14337946 4.76833734 -1.34846706 7.39139617 -2.6875 10.0625 C-3.04005859 10.80822266 -3.39261719 11.55394531 -3.75585938 12.32226562 C-4.10841797 13.03189453 -4.46097656 13.74152344 -4.82421875 14.47265625 C-5.14479248 15.12500244 -5.46536621 15.77734863 -5.7956543 16.44946289 C-7.34230598 18.44070247 -8.55720702 18.63366104 -11 19 C-10.09932857 14.90603897 -9.29504608 12.0410699 -6.5 8.875 C-4.16985014 6.19532766 -3.21096765 4.26029752 -2 1 C-1.34 0.67 -0.68 0.34 0 0 Z " fill="#8B8B8B" transform="translate(627,60)"/>
<path d="M0 0 C1.98 0.66 3.96 1.32 6 2 C6 2.66 6 3.32 6 4 C7.98 3.34 9.96 2.68 12 2 C12.33 2.66 12.66 3.32 13 4 C15.31 4 17.62 4 20 4 C19.67 4.66 19.34 5.32 19 6 C13.11552426 7.59371218 8.45545848 6.70050639 3 4 C0.9375 1.8125 0.9375 1.8125 0 0 Z " fill="#5C5959" transform="translate(520,306)"/>
<path d="M0 0 C0.93423645 3.01031744 1.04449911 3.86650268 0 7 C0.99 8.485 0.99 8.485 2 10 C-1.43595166 8.47291037 -4.11912454 6.40072955 -7 4 C-6.67 3.01 -6.34 2.02 -6 1 C-3.03 1.495 -3.03 1.495 0 2 C0 1.34 0 0.68 0 0 Z " fill="#8D898A" transform="translate(667,240)"/>
<path d="M0 0 C0.33 0.99 0.66 1.98 1 3 C-0.43359375 5.48046875 -0.43359375 5.48046875 -2.4375 8.1875 C-3.09621094 9.08855469 -3.75492188 9.98960938 -4.43359375 10.91796875 C-4.95050781 11.60503906 -5.46742188 12.29210937 -6 13 C-7.0625 11.125 -7.0625 11.125 -8 9 C-7.67 8.34 -7.34 7.68 -7 7 C-7.66 6.67 -8.32 6.34 -9 6 C-8.34 5.34 -7.68 4.68 -7 4 C-4.375 4.375 -4.375 4.375 -2 5 C-2 4.01 -2 3.02 -2 2 C-1.34 2 -0.68 2 0 2 C0 1.34 0 0.68 0 0 Z " fill="#696967" transform="translate(721,56)"/>
<path d="M0 0 C0 0.33 0 0.66 0 1 C-1.39025391 1.18175781 -1.39025391 1.18175781 -2.80859375 1.3671875 C-4.00613281 1.53476562 -5.20367187 1.70234375 -6.4375 1.875 C-7.63246094 2.03742188 -8.82742188 2.19984375 -10.05859375 2.3671875 C-11.51458984 2.68042969 -11.51458984 2.68042969 -13 3 C-14.21693876 5.43387753 -14.31959896 7.41838846 -14.5625 10.125 C-14.68818359 11.49011719 -14.68818359 11.49011719 -14.81640625 12.8828125 C-14.87699219 13.58148438 -14.93757813 14.28015625 -15 15 C-15.33 15 -15.66 15 -16 15 C-16.33 10.71 -16.66 6.42 -17 2 C-11.21642935 -0.01167675 -6.09781001 -0.22084624 0 0 Z " fill="#757575" transform="translate(484,279)"/>
<path d="M0 0 C1.77433812 0.93084971 3.54435149 1.86994613 5.3125 2.8125 C6.29863281 3.33457031 7.28476562 3.85664063 8.30078125 4.39453125 C10.61665068 5.7719876 12.23611001 6.99530591 14 9 C13.2575 8.690625 12.515 8.38125 11.75 8.0625 C9.49307824 7.1905075 7.3549847 6.52332993 5 6 C5 6.66 5 7.32 5 8 C2.525 7.01 2.525 7.01 0 6 C0.66 4.68 1.32 3.36 2 2 C1.34 2 0.68 2 0 2 C0 1.34 0 0.68 0 0 Z " fill="#656562" transform="translate(394,223)"/>
<path d="M0 0 C1.140625 1.67578125 1.140625 1.67578125 2 4 C1.171875 6.54296875 1.171875 6.54296875 -0.25 9.1875 C-0.93835938 10.50814453 -0.93835938 10.50814453 -1.640625 11.85546875 C-3 14 -3 14 -5 15 C-4.5188509 9.22621075 -2.81532819 5.04140164 0 0 Z " fill="#898989" transform="translate(391,163)"/>
<path d="M0 0 C0.66 0.33 1.32 0.66 2 1 C0.54718935 6.32697239 -3.08111378 9.36402802 -7 13 C-7.33 12.01 -7.66 11.02 -8 10 C-6.38612935 7.89300221 -4.76821132 5.96297083 -3 4 C-1.9888778 2.67508126 -0.98336098 1.34565187 0 0 Z " fill="#706F70" transform="translate(555,224)"/>
<path d="M0 0 C2.97 0.33 5.94 0.66 9 1 C6.75 5.5 6.75 5.5 3 7 C0.64046906 4.64046906 0.50858587 3.22104383 0 0 Z " fill="#9D9D9B" transform="translate(683,145)"/>
<path d="M0 0 C4.83256305 0.41421969 6.82679218 2.46413986 10 6 C9 7 9 7 6 9 C5.87625 8.360625 5.7525 7.72125 5.625 7.0625 C5.41875 6.381875 5.2125 5.70125 5 5 C4.34 4.67 3.68 4.34 3 4 C3 3.34 3 2.68 3 2 C2.34 2 1.68 2 1 2 C0.67 2.66 0.34 3.32 0 4 C-0.66 4 -1.32 4 -2 4 C-1.34 2.68 -0.68 1.36 0 0 Z " fill="#646363" transform="translate(619,319)"/>
<path d="M0 0 C2 1 2 1 4 4 C2.75336669 4.50833591 1.50250613 5.00631145 0.25 5.5 C-0.44609375 5.7784375 -1.1421875 6.056875 -1.859375 6.34375 C-4 7 -4 7 -8 7 C-8 6.01 -8 5.02 -8 4 C-5.36 3.34 -2.72 2.68 0 2 C0 1.34 0 0.68 0 0 Z " fill="#7A7979" transform="translate(521,160)"/>
<path d="M0 0 C1.05899758 3.17699273 0.96817951 3.97276688 0.125 7.0625 C-0.05804687 7.75472656 -0.24109375 8.44695312 -0.4296875 9.16015625 C-1 11 -1 11 -2 13 C-1.34 13.33 -0.68 13.66 0 14 C-0.66 14 -1.32 14 -2 14 C-2 14.66 -2 15.32 -2 16 C-2.66 16 -3.32 16 -4 16 C-4.33 16.66 -4.66 17.32 -5 18 C-4.42934122 11.58008874 -2.32655091 5.98410537 0 0 Z " fill="#5B5B5B" transform="translate(574,207)"/>
<path d="M0 0 C3.65316671 1.24976756 4.78065836 1.67098753 7 5 C7 5.99 7 6.98 7 8 C7.33 8.66 7.66 9.32 8 10 C5.04191542 8.62660359 2.35860436 7.27436849 0 5 C-0.25 2.3125 -0.25 2.3125 0 0 Z " fill="#999997" transform="translate(329,192)"/>
<path d="M0 0 C5.06998019 0.65419099 9.41990777 2.8546409 14 5 C13.01 5.99 12.02 6.98 11 8 C9.68 7.34 8.36 6.68 7 6 C7 5.34 7 4.68 7 4 C5.68 4.33 4.36 4.66 3 5 C3.33 4.01 3.66 3.02 4 2 C2.68 2 1.36 2 0 2 C0 1.34 0 0.68 0 0 Z " fill="#666665" transform="translate(526,78)"/>
<path d="M0 0 C1.13561748 3.65921187 0.73078723 5.53842554 -1 9 C-3.66666667 9 -6.33333333 9 -9 9 C-7.71034824 7.62437146 -6.37310707 6.29233607 -5 5 C-4.34 5 -3.68 5 -3 5 C-2.67 4.01 -2.34 3.02 -2 2 C-1.34 2 -0.68 2 0 2 C0 1.34 0 0.68 0 0 Z " fill="#727272" transform="translate(690,63)"/>
<path d="M0 0 C0.33 1.32 0.66 2.64 1 4 C-0.09283577 5.03295436 -1.19970579 6.05107835 -2.3125 7.0625 C-2.92738281 7.63097656 -3.54226563 8.19945312 -4.17578125 8.78515625 C-4.77777344 9.18605469 -5.37976563 9.58695313 -6 10 C-6.99 9.67 -7.98 9.34 -9 9 C-8.06725891 7.87105124 -7.12859878 6.74699124 -6.1875 5.625 C-5.66542969 4.99851563 -5.14335937 4.37203125 -4.60546875 3.7265625 C-3 2 -3 2 0 0 Z " fill="#757575" transform="translate(498,190)"/>
<path d="M0 0 C7.50769231 -0.36923077 7.50769231 -0.36923077 10 1.5 C10.495 2.2425 10.495 2.2425 11 3 C9.66666667 3.33333333 8.33333333 3.66666667 7 4 C6.319375 4.2475 5.63875 4.495 4.9375 4.75 C3 5 3 5 1.25 3.6875 C0 2 0 2 0 0 Z " fill="#9D9D9D" transform="translate(690,243)"/>
<path d="M0 0 C-2.66553124 2.93208436 -4.91809248 4.79718992 -8.96484375 5.19140625 C-10.97683397 5.24598103 -12.99144555 5.12958416 -15 5 C-15.66 4.34 -16.32 3.68 -17 3 C-13.7 3 -10.4 3 -7 3 C-7 2.34 -7 1.68 -7 1 C-4.53721199 -0.231394 -2.7204945 -0.07159196 0 0 Z " fill="#4A4849" transform="translate(448,214)"/>
<path d="M0 0 C0.33 0.66 0.66 1.32 1 2 C1.598125 1.79375 2.19625 1.5875 2.8125 1.375 C5 1 5 1 8 3 C6.68 4.32 5.36 5.64 4 7 C4.66 7.66 5.32 8.32 6 9 C4.125 8.75 4.125 8.75 2 8 C-0.02755186 5.06004981 0 3.72295997 0 0 Z " fill="#686766" transform="translate(668,130)"/>
<path d="M0 0 C0.33 0 0.66 0 1 0 C1.22634311 3.4157233 1.42792113 6.83247322 1.625 10.25 C1.68945312 11.21808594 1.75390625 12.18617188 1.8203125 13.18359375 C1.871875 14.11816406 1.9234375 15.05273438 1.9765625 16.015625 C2.02893066 16.87446289 2.08129883 17.73330078 2.13525391 18.61816406 C1.9870078 21.22879397 1.32298482 22.76943856 0 25 C-0.78653402 21.59698245 -1.08116649 18.62008956 -0.87890625 15.13671875 C-0.83056641 14.25048828 -0.78222656 13.36425781 -0.73242188 12.45117188 C-0.67634766 11.53916016 -0.62027344 10.62714844 -0.5625 9.6875 C-0.51029297 8.75615234 -0.45808594 7.82480469 -0.40429688 6.86523438 C-0.2751852 4.57643647 -0.14024585 2.28813814 0 0 Z " fill="#A1A09E" transform="translate(364,276)"/>
<path d="M0 0 C0.33 0.99 0.66 1.98 1 3 C-1.66666667 5.66666667 -4.33333333 8.33333333 -7 11 C-7.66 10.67 -8.32 10.34 -9 10 C-7.8758824 8.70756532 -6.75067408 7.41607925 -5.625 6.125 C-4.99851562 5.40570313 -4.37203125 4.68640625 -3.7265625 3.9453125 C-2.52573166 2.5923402 -1.2791655 1.2791655 0 0 Z " fill="#5D5D5D" transform="translate(323,80)"/>
<path d="M0 0 C7.74468085 0.74468085 7.74468085 0.74468085 11 4 C11 4.66 11 5.32 11 6 C6.95743617 4.77782954 3.50711041 3.37245704 0 1 C0 0.67 0 0.34 0 0 Z " fill="#787673" transform="translate(393,247)"/>
<path d="M0 0 C4.455 1.98 4.455 1.98 9 4 C7.68 4.99 6.36 5.98 5 7 C5 6.34 5 5.68 5 5 C3.35 4.67 1.7 4.34 0 4 C0 2.68 0 1.36 0 0 Z " fill="#797A79" transform="translate(643,334)"/>
<path d="M0 0 C0.33 0.99 0.66 1.98 1 3 C0.01 3.33 -0.98 3.66 -2 4 C-2 4.99 -2 5.98 -2 7 C-4.49529367 9.31705841 -6.65980694 10.40353695 -10 11 C-8.71937515 9.2925002 -7.38232443 7.62626404 -6 6 C-5.34 6 -4.68 6 -4 6 C-3.67 5.01 -3.34 4.02 -3 3 C-1.4375 1.3125 -1.4375 1.3125 0 0 Z " fill="#5E5D5D" transform="translate(533,220)"/>
<path d="M0 0 C0.598125 0.226875 1.19625 0.45375 1.8125 0.6875 C-0.65325342 4.50941781 -0.65325342 4.50941781 -3.25 5.375 C-3.889375 5.478125 -4.52875 5.58125 -5.1875 5.6875 C-6.1775 6.1825 -6.1775 6.1825 -7.1875 6.6875 C-3.9375 -0.5625 -3.9375 -0.5625 0 0 Z " fill="#9E9E9E" transform="translate(349.1875,59.3125)"/>
<path d="M0 0 C1.04005702 3.38018531 1.08004482 6.4780279 1 10 C-0.32 10 -1.64 10 -3 10 C-2.39009109 6.44219804 -1.4216319 3.3171411 0 0 Z " fill="#6A696A" transform="translate(382,182)"/>
<path d="M0 0 C0.66 0.33 1.32 0.66 2 1 C2 2.32 2 3.64 2 5 C1.195625 5.12375 0.39125 5.2475 -0.4375 5.375 C-1.7059375 5.684375 -1.7059375 5.684375 -3 6 C-3.33 6.66 -3.66 7.32 -4 8 C-4.66 8 -5.32 8 -6 8 C-5.1875 6.0625 -5.1875 6.0625 -4 4 C-3.01 3.67 -2.02 3.34 -1 3 C-0.67 2.01 -0.34 1.02 0 0 Z " fill="#717171" transform="translate(652,122)"/>
<path d="M0 0 C0.33 0.66 0.66 1.32 1 2 C0.00390625 4.6015625 0.00390625 4.6015625 -1.4375 7.625 C-1.91058594 8.62789062 -2.38367188 9.63078125 -2.87109375 10.6640625 C-3.24363281 11.43492188 -3.61617187 12.20578125 -4 13 C-5.14271055 9.57186835 -4.82699932 8.69088901 -3.6875 5.375 C-3.42324219 4.57835938 -3.15898438 3.78171875 -2.88671875 2.9609375 C-2 1 -2 1 0 0 Z " fill="#555454" transform="translate(627,60)"/>
<path d="M0 0 C0.66 1.32 1.32 2.64 2 4 C1.67 4.99 1.34 5.98 1 7 C0.34 7 -0.32 7 -1 7 C-1.33 7.66 -1.66 8.32 -2 9 C-2.99 8.67 -3.98 8.34 -5 8 C-3.35 5.36 -1.7 2.72 0 0 Z " fill="#5D5B5C" transform="translate(604,285)"/>
<path d="M0 0 C5.75 1.625 5.75 1.625 8 5 C7.67 5.99 7.34 6.98 7 8 C5.83035398 6.8572081 4.66435444 5.71068285 3.5 4.5625 C2.8503125 3.92441406 2.200625 3.28632813 1.53125 2.62890625 C0 1 0 1 0 0 Z " fill="#878586" transform="translate(649,232)"/>
<path d="M0 0 C0.33 0.66 0.66 1.32 1 2 C3.01669827 3.13350534 3.01669827 3.13350534 5 4 C4.67 5.98 4.34 7.96 4 10 C3.34 10 2.68 10 2 10 C1.34 6.7 0.68 3.4 0 0 Z " fill="#7E7E7D" transform="translate(609,222)"/>
<path d="M0 0 C1.32 0.99 2.64 1.98 4 3 C3.01 4.98 2.02 6.96 1 9 C0.34 8.34 -0.32 7.68 -1 7 C-0.625 3.375 -0.625 3.375 0 0 Z " fill="#6A696A" transform="translate(656,60)"/>
<path d="M0 0 C1.65 0.33 3.3 0.66 5 1 C5 3 5 3 3.6875 4.625 C2 6 2 6 -1 6 C-0.67 4.02 -0.34 2.04 0 0 Z " fill="#9F9F9D" transform="translate(393,41)"/>
<path d="M0 0 C1.32 0.66 2.64 1.32 4 2 C3.34 3.32 2.68 4.64 2 6 C1.01 6 0.02 6 -1 6 C-0.67 4.02 -0.34 2.04 0 0 Z " fill="#7B7A7B" transform="translate(436,314)"/>
<path d="M0 0 C3.3 0 6.6 0 10 0 C9.34 1.32 8.68 2.64 8 4 C7.67 3.34 7.34 2.68 7 2 C6.34 2 5.68 2 5 2 C4.67 2.66 4.34 3.32 4 4 C3.67 3.01 3.34 2.02 3 1 C2.01 0.67 1.02 0.34 0 0 Z " fill="#A2A2A1" transform="translate(458,250)"/>
<path d="M0 0 C0.66 0 1.32 0 2 0 C2.33 0.99 2.66 1.98 3 3 C5.00016466 4.20882096 5.00016466 4.20882096 7 5 C6.34 6.32 5.68 7.64 5 9 C4.16094435 7.87926138 3.32892169 6.75325453 2.5 5.625 C2.0359375 4.99851563 1.571875 4.37203125 1.09375 3.7265625 C0 2 0 2 0 0 Z " fill="#707070" transform="translate(636,212)"/>
<path d="M0 0 C0.556875 0.309375 1.11375 0.61875 1.6875 0.9375 C4.12540433 2.05761821 6.36224186 2.56037364 9 3 C9.33 4.32 9.66 5.64 10 7 C6.433255 7 5.89456323 6.36308045 3.3125 4.0625 C2.68988281 3.51722656 2.06726563 2.97195312 1.42578125 2.41015625 C0.95527344 1.94480469 0.48476563 1.47945312 0 1 C0 0.67 0 0.34 0 0 Z " fill="#575656" transform="translate(330,198)"/>
<path d="M0 0 C1.65322266 0.01740234 1.65322266 0.01740234 3.33984375 0.03515625 C4.99693359 0.04869141 4.99693359 0.04869141 6.6875 0.0625 C7.54214844 0.07410156 8.39679687 0.08570313 9.27734375 0.09765625 C5.58999617 2.55588797 2.58034404 3.11008241 -1.72265625 4.09765625 C-2.38265625 3.10765625 -3.04265625 2.11765625 -3.72265625 1.09765625 C-2.72265625 0.09765625 -2.72265625 0.09765625 0 0 Z " fill="#7F7F7F" transform="translate(534.72265625,186.90234375)"/>
<path d="M0 0 C0.99 0.66 1.98 1.32 3 2 C-0.85756507 4.15305957 -3.55129785 5.39253254 -8 5 C-7.67 4.34 -7.34 3.68 -7 3 C-4.67843403 2.59270772 -2.3431213 2.25561323 0 2 C0 1.34 0 0.68 0 0 Z " fill="#9C9C9B" transform="translate(691,123)"/>
<path d="M0 0 C1.9375 1.375 1.9375 1.375 2.6875 4 C2.77 4.78375 2.8525 5.5675 2.9375 6.375 C-0.42970387 4.98167426 -2.0484524 3.3960714 -4.0625 0.375 C-2.0625 -0.625 -2.0625 -0.625 0 0 Z " fill="#696868" transform="translate(590.0625,83.625)"/>
<path d="M0 0 C0.33 0.66 0.66 1.32 1 2 C0.22265625 3.9453125 0.22265625 3.9453125 -0.9375 6.125 C-1.31777344 6.84945313 -1.69804688 7.57390625 -2.08984375 8.3203125 C-2.39019531 8.87460937 -2.69054687 9.42890625 -3 10 C-3.66 8.68 -4.32 7.36 -5 6 C-4.01 5.67 -3.02 5.34 -2 5 C-2 3.68 -2 2.36 -2 1 C-1.34 0.67 -0.68 0.34 0 0 Z " fill="#5D5C5C" transform="translate(626,288)"/>
<path d="M0 0 C1.5 1.3125 1.5 1.3125 3 3 C3 3.99 3 4.98 3 6 C0.03 5.505 0.03 5.505 -3 5 C-2.34 4.67 -1.68 4.34 -1 4 C-0.34786708 1.97536745 -0.34786708 1.97536745 0 0 Z " fill="#767574" transform="translate(429,259)"/>
<path d="M0 0 C0.66 0.99 1.32 1.98 2 3 C1.34 3.66 0.68 4.32 0 5 C-3.625 4.625 -3.625 4.625 -7 4 C-7 3.67 -7 3.34 -7 3 C-5.35 3 -3.7 3 -2 3 C-1.67 2.34 -1.34 1.68 -1 1 C-0.67 0.67 -0.34 0.34 0 0 Z " fill="#8A8989" transform="translate(396,242)"/>
<path d="M0 0 C0.185625 0.9590625 0.185625 0.9590625 0.375 1.9375 C0.684375 2.9584375 0.684375 2.9584375 1 4 C1.66 4.33 2.32 4.66 3 5 C2.67 5.66 2.34 6.32 2 7 C-0.5625 7.625 -0.5625 7.625 -3 8 C-1.125 2.25 -1.125 2.25 0 0 Z " fill="#787877" transform="translate(581,194)"/>
<path d="M0 0 C0.33 0.99 0.66 1.98 1 3 C0.01 3.33 -0.98 3.66 -2 4 C-2.33 4.66 -2.66 5.32 -3 6 C-4.66666667 6 -6.33333333 6 -8 6 C-5.38485683 3.87961365 -2.80362384 1.86908256 0 0 Z " fill="#60605E" transform="translate(515,176)"/>
<path d="M0 0 C0.66 0.99 1.32 1.98 2 3 C0.35 3.66 -1.3 4.32 -3 5 C-3.99 4.01 -4.98 3.02 -6 2 C-4.02 1.34 -2.04 0.68 0 0 Z " fill="#81807E" transform="translate(590,155)"/>
<path d="M0 0 C-4.10457614 2.98514628 -6.97745369 3.2954439 -12 3 C-8.52582963 0.68388642 -4.04642977 -2.02321489 0 0 Z " fill="#4A4A4A" transform="translate(517,144)"/>
<path d="M0 0 C0.90492188 0.38285156 1.80984375 0.76570313 2.7421875 1.16015625 C4.10730469 1.73056641 4.10730469 1.73056641 5.5 2.3125 C6.19867187 2.61285156 6.89734375 2.91320312 7.6171875 3.22265625 C4.3341777 4.86416115 1.19173717 3.74154249 -2.3828125 3.22265625 C-2.3828125 2.56265625 -2.3828125 1.90265625 -2.3828125 1.22265625 C-3.0428125 0.89265625 -3.7028125 0.56265625 -4.3828125 0.22265625 C-2.3828125 -0.77734375 -2.3828125 -0.77734375 0 0 Z " fill="#9B9A9A" transform="translate(511.3828125,123.77734375)"/>
<path d="M0 0 C-3.16240582 2.10827055 -4.50657469 2.33817465 -8.1875 2.625 C-9.53908203 2.73714844 -9.53908203 2.73714844 -10.91796875 2.8515625 C-11.94857422 2.92503906 -11.94857422 2.92503906 -13 3 C-4.04307941 -1.49743682 -4.04307941 -1.49743682 0 0 Z " fill="#818181" transform="translate(464,106)"/>
<path d="M0 0 C2.64 1.98 5.28 3.96 8 6 C6 7 6 7 3.4375 6.375 C1 5 1 5 0.1875 2.375 C0.125625 1.59125 0.06375 0.8075 0 0 Z " fill="#707070" transform="translate(688,178)"/>
<path d="M0 0 C0.33 0.99 0.66 1.98 1 3 C0.38125 3.2475 -0.2375 3.495 -0.875 3.75 C-3.35068687 5.20628639 -3.95125002 6.37812506 -5 9 C-5.66 8.67 -6.32 8.34 -7 8 C-4.69 5.36 -2.38 2.72 0 0 Z " fill="#494949" transform="translate(292,115)"/>
<path d="M0 0 C3.37503669 1.1858237 5.64722731 2.27573689 8 5 C6.35 5 4.7 5 3 5 C2.67 4.01 2.34 3.02 2 2 C1.34 2 0.68 2 0 2 C0 1.34 0 0.68 0 0 Z " fill="#636561" transform="translate(534,113)"/>
<path d="M0 0 C-0.99 0.66 -1.98 1.32 -3 2 C-4.2375 2.8353125 -4.2375 2.8353125 -5.5 3.6875 C-6.325 4.120625 -7.15 4.55375 -8 5 C-8.99 4.67 -9.98 4.34 -11 4 C-7.26280719 0.48264206 -5.13496308 -0.47767098 0 0 Z " fill="#646363" transform="translate(678,100)"/>
<path d="M0 0 C2.9719385 1.12451727 5.33440687 2.22293791 8 4 C5.36 4 2.72 4 0 4 C0 2.68 0 1.36 0 0 Z " fill="#868686" transform="translate(658,342)"/>
<path d="M0 0 C0 3 0 3 -1 6 C-0.01 6.33 0.98 6.66 2 7 C1.01 7.495 1.01 7.495 0 8 C-0.99 7.34 -1.98 6.68 -3 6 C-2.625 3.5625 -2.625 3.5625 -2 1 C-1.34 0.67 -0.68 0.34 0 0 Z " fill="#6D6D6A" transform="translate(611,330)"/>
<path d="M0 0 C0 0.99 0 1.98 0 3 C-3 5.1875 -3 5.1875 -6 7 C-6.66 6.67 -7.32 6.34 -8 6 C-5.36 4.02 -2.72 2.04 0 0 Z " fill="#606060" transform="translate(576,321)"/>
<path d="M0 0 C0.66 0.33 1.32 0.66 2 1 C1.34 4.63 0.68 8.26 0 12 C-0.33 12 -0.66 12 -1 12 C-1 9.36 -1 6.72 -1 4 C-1.66 3.67 -2.32 3.34 -3 3 C-2.01 2.67 -1.02 2.34 0 2 C0 1.34 0 0.68 0 0 Z " fill="#646464" transform="translate(714,265)"/>
<path d="M0 0 C0.28875 0.598125 0.5775 1.19625 0.875 1.8125 C2.04742026 4.19327792 2.04742026 4.19327792 4 7 C1.50638429 5.79618552 -0.68143083 4.54571278 -3 3 C-3 2.34 -3 1.68 -3 1 C-2.01 0.67 -1.02 0.34 0 0 Z " fill="#626061" transform="translate(665,243)"/>
<path d="M0 0 C0.66 0.33 1.32 0.66 2 1 C0.75023244 4.65316671 0.32901247 5.78065836 -3 8 C-3.33 7.01 -3.66 6.02 -4 5 C-3.34 4.67 -2.68 4.34 -2 4 C-0.86649466 1.98330173 -0.86649466 1.98330173 0 0 Z " fill="#6A6A6A" transform="translate(555,224)"/>
<path d="M0 0 C0.6875 1.8125 0.6875 1.8125 1 4 C-0.3125 5.75 -0.3125 5.75 -2 7 C-2.66 7 -3.32 7 -4 7 C-3.67 5.35 -3.34 3.7 -3 2 C-2.01 2 -1.02 2 0 2 C0 1.34 0 0.68 0 0 Z " fill="#9D9C9C" transform="translate(542,211)"/>
<path d="M0 0 C2.475 0.495 2.475 0.495 5 1 C5.33 2.65 5.66 4.3 6 6 C3.97945196 4.35830472 1.97956942 2.69088222 0 1 C0 0.67 0 0.34 0 0 Z " fill="#656565" transform="translate(287,151)"/>
<path d="M0 0 C1.32 0.33 2.64 0.66 4 1 C3.67 3.31 3.34 5.62 3 8 C0.4345406 5.4345406 0.45953913 3.52313332 0 0 Z " fill="#6F6E6C" transform="translate(347,135)"/>
<path d="M0 0 C0.66 0.33 1.32 0.66 2 1 C0.63016497 4.16115776 0.0109362 4.9927092 -3 7 C-2.625 4.0625 -2.625 4.0625 -2 1 C-1.34 0.67 -0.68 0.34 0 0 Z " fill="#6A686A" transform="translate(306,129)"/>
<path d="M0 0 C0.80050781 0.12761719 1.60101562 0.25523438 2.42578125 0.38671875 C3.23402344 0.50660156 4.04226563 0.62648438 4.875 0.75 C5.48988281 0.85699219 6.10476563 0.96398437 6.73828125 1.07421875 C6.73828125 1.40421875 6.73828125 1.73421875 6.73828125 2.07421875 C0.79828125 2.56921875 0.79828125 2.56921875 -5.26171875 3.07421875 C-2.26171875 0.07421875 -2.26171875 0.07421875 0 0 Z " fill="#585857" transform="translate(697.26171875,122.92578125)"/>
<path d="M0 0 C1.32 0.33 2.64 0.66 4 1 C1.03 3.475 1.03 3.475 -2 6 C-2 3 -2 3 0 0 Z " fill="#6B6B69" transform="translate(328,103)"/>
<path d="M0 0 C4.39158329 1.4638611 4.87947433 3.97831338 7 8 C4.13792848 6.71700242 1.9754912 5.469364 0 3 C0 2.01 0 1.02 0 0 Z " fill="#616161" transform="translate(503,84)"/>
<path d="M0 0 C0.66 0 1.32 0 2 0 C1.6875 2.375 1.6875 2.375 1 5 C0.01 5.66 -0.98 6.32 -2 7 C-1.125 1.125 -1.125 1.125 0 0 Z " fill="#7B7B7B" transform="translate(710,69)"/>
<path d="M0 0 C0.33 0.99 0.66 1.98 1 3 C1.66 3.33 2.32 3.66 3 4 C1.6875 5.5 1.6875 5.5 0 7 C-0.99 7 -1.98 7 -3 7 C-1.125 2.25 -1.125 2.25 0 0 Z " fill="#6A6A68" transform="translate(701,48)"/>
<path d="M0 0 C0.33 0.66 0.66 1.32 1 2 C1.66 2.33 2.32 2.66 3 3 C0.6875 4.5625 0.6875 4.5625 -2 6 C-2.99 5.67 -3.98 5.34 -5 5 C-5 4.34 -5 3.68 -5 3 C-4.360625 2.87625 -3.72125 2.7525 -3.0625 2.625 C-2.0415625 2.315625 -2.0415625 2.315625 -1 2 C-0.67 1.34 -0.34 0.68 0 0 Z " fill="#797879" transform="translate(688,31)"/>
<path d="M0 0 C0.12375 0.639375 0.2475 1.27875 0.375 1.9375 C0.58125 2.618125 0.7875 3.29875 1 4 C1.66 4.33 2.32 4.66 3 5 C-0.09478879 6.03159626 -1.52631393 5.97482862 -4.6875 5.5625 C-5.89986328 5.40974609 -5.89986328 5.40974609 -7.13671875 5.25390625 C-7.75160156 5.17011719 -8.36648438 5.08632812 -9 5 C-9 4.67 -9 4.34 -9 4 C-6.03 4 -3.06 4 0 4 C0 2.68 0 1.36 0 0 Z " fill="#777777" transform="translate(468,245)"/>
<path d="M0 0 C0.33 0.99 0.66 1.98 1 3 C1.66 3.33 2.32 3.66 3 4 C1.35 5.32 -0.3 6.64 -2 8 C-2 4.79604584 -1.25664978 2.90600261 0 0 Z " fill="#676666" transform="translate(476,220)"/>
<path d="M0 0 C-0.33 2.31 -0.66 4.62 -1 7 C-1.33 6.01 -1.66 5.02 -2 4 C-2.99 4.33 -3.98 4.66 -5 5 C-3.33333333 0 -3.33333333 0 0 0 Z " fill="#7E7D7D" transform="translate(561,216)"/>
<path d="M0 0 C1.99097846 2.98646769 2.94124926 5.59687262 4 9 C3.01 9 2.02 9 1 9 C0.67 6.03 0.34 3.06 0 0 Z " fill="#646464" transform="translate(652,195)"/>
<path d="M0 0 C0 3.10551666 -0.5393715 4.35261084 -2 7 C-3.32 6.67 -4.64 6.34 -6 6 C-5.01 5.67 -4.02 5.34 -3 5 C-1.8499169 3.03327085 -1.8499169 3.03327085 -1 1 C-0.67 0.67 -0.34 0.34 0 0 Z " fill="#666666" transform="translate(505,183)"/>
<path d="M0 0 C0.66 1.32 1.32 2.64 2 4 C0.68 5.32 -0.64 6.64 -2 8 C-2.33 7.34 -2.66 6.68 -3 6 C-2.06553465 3.96855359 -1.06775224 1.96466413 0 0 Z " fill="#777777" transform="translate(391,163)"/>
<path d="M0 0 C0.99 0.33 1.98 0.66 3 1 C4.1875 4.5625 4.1875 4.5625 5 8 C2.5 5.6875 2.5 5.6875 0 3 C0 2.01 0 1.02 0 0 Z " fill="#676767" transform="translate(298,161)"/>
<path d="M0 0 C2.00720923 0.28674418 4.0085944 0.61866701 6 1 C4.68 1.99 3.36 2.98 2 4 C1.01 3.01 0.02 2.02 -1 1 C-0.67 0.67 -0.34 0.34 0 0 Z M-2 3 C-1.01 3.495 -1.01 3.495 0 4 C-0.99 4.495 -0.99 4.495 -2 5 C-2 4.34 -2 3.68 -2 3 Z " fill="#818181" transform="translate(515,106)"/>
<path d="M0 0 C2.31 0.33 4.62 0.66 7 1 C7 1.99 7 2.98 7 4 C4.03 3.505 4.03 3.505 1 3 C0.67 2.01 0.34 1.02 0 0 Z " fill="#6E6C6C" transform="translate(533,103)"/>
<path d="M0 0 C2.625 0.375 2.625 0.375 5 1 C3.68 2.32 2.36 3.64 1 5 C0.67 4.34 0.34 3.68 0 3 C-0.66 2.67 -1.32 2.34 -2 2 C-1.34 1.34 -0.68 0.68 0 0 Z " fill="#757575" transform="translate(401,40)"/>
<path d="M0 0 C2.17766075 4.35532149 2.03039555 5.46625958 1 10 C0.34 10 -0.32 10 -1 10 C-0.67 6.7 -0.34 3.4 0 0 Z " fill="#4B4B4B" transform="translate(568,1)"/>
<path d="M0 0 C-2.60314689 1.73543126 -3.98694043 2.61121812 -7 3 C-7.66 2.34 -8.32 1.68 -9 1 C-5.57367167 -0.61798838 -3.61944899 -1.34053666 0 0 Z " fill="#6D6D6D" transform="translate(432,8)"/>
<path d="M0 0 C0.99 0.33 1.98 0.66 3 1 C3.33 1.99 3.66 2.98 4 4 C2.5625 6.1875 2.5625 6.1875 1 8 C0.67 5.36 0.34 2.72 0 0 Z " fill="#919191" transform="translate(610,0)"/>
</svg>
