<?xml version="1.0" encoding="UTF-8"?>
<svg version="1.1" xmlns="http://www.w3.org/2000/svg" width="680" height="263">
<path d="M0 0 C0.67404284 2.56076097 1.339414 5.12326583 2 7.6875 C2.28617188 8.7693457 2.28617188 8.7693457 2.578125 9.87304688 C4.52525847 17.48772954 4.52525847 17.48772954 4 21 C2.64453125 22.625 2.64453125 22.625 0.8125 24 C-1.41917105 25.75409345 -3.42138956 27.42138956 -5.4375 29.4375 C-7.52308152 31.52308152 -9.63030705 33.40817316 -11.875 35.3125 C-15.39119589 38.35192357 -18.41089469 41.62361994 -21.41796875 45.16015625 C-23.49107978 47.5711076 -25.72390894 49.78081121 -28 52 C-28.59167969 52.61359375 -29.18335938 53.2271875 -29.79296875 53.859375 C-30.41816406 54.50390625 -31.04335938 55.1484375 -31.6875 55.8125 C-32.26886719 56.41707031 -32.85023438 57.02164063 -33.44921875 57.64453125 C-35 59 -35 59 -37 59 C-37.24363281 59.73734375 -37.48726563 60.4746875 -37.73828125 61.234375 C-39.15257865 64.33444484 -40.70175715 65.93967102 -43.1875 68.25 C-47.11306707 72.01727807 -50.4049784 75.94305523 -53.58984375 80.34765625 C-54.05519531 80.89292969 -54.52054687 81.43820313 -55 82 C-55.66 82 -56.32 82 -57 82 C-56.505 82.61875 -56.01 83.2375 -55.5 83.875 C-54 86 -54 86 -54 88 C-53.0409375 88.37125 -53.0409375 88.37125 -52.0625 88.75 C-50 90 -50 90 -49.4375 92.0625 C-49.2209375 93.0215625 -49.2209375 93.0215625 -49 94 C-48.01 94.33 -47.02 94.66 -46 95 C-44.421875 96.56640625 -44.421875 96.56640625 -42.75 98.5625 C-42.13898438 99.28179687 -41.52796875 100.00109375 -40.8984375 100.7421875 C-40.27195312 101.48726563 -39.64546875 102.23234375 -39 103 C-35.13568066 107.489188 -31.24723364 111.86453567 -27 116 C-24.03652039 118.8854933 -21.28365484 121.83691288 -18.625 125 C-15.87920676 128.18750781 -13.11272855 130.47554481 -9.62109375 132.78515625 C-6.97425226 134.76869289 -5.10397328 137.46444246 -3 140 C-1.01924973 141.36176581 0.98079663 142.69593116 3 144 C4.68816933 145.64488294 6.35353315 147.31337542 8 149 C9.21622877 150.11840167 10.44594011 151.22228729 11.6875 152.3125 C12.26886719 152.82425781 12.85023438 153.33601562 13.44921875 153.86328125 C14.94838272 155.1970625 14.94838272 155.1970625 17 155 C17.52787109 153.14761719 17.52787109 153.14761719 18.06640625 151.2578125 C22.59862548 135.60515837 27.45245948 119.98894563 36 106 C36.51691406 105.13246094 37.03382813 104.26492187 37.56640625 103.37109375 C41.37556746 97.27070775 41.37556746 97.27070775 44.02734375 96.12109375 C44.67832031 96.08113281 45.32929688 96.04117188 46 96 C48.4375 98.1875 48.4375 98.1875 51 101 C51.886875 101.680625 52.77375 102.36125 53.6875 103.0625 C56.1070305 105.0896742 57.1350072 105.9906538 58 109 C56.734375 112.015625 56.734375 112.015625 54.75 115.25 C54.10546875 116.32765625 53.4609375 117.4053125 52.796875 118.515625 C52.20390625 119.33546875 51.6109375 120.1553125 51 121 C50.34 121 49.68 121 49 121 C48.814375 122.134375 48.62875 123.26875 48.4375 124.4375 C47.36353261 129.35595937 45.51710667 133.81981754 43.5625 138.4375 C39.29857325 148.5506596 36.59086293 158.10726795 35 169 C57.74138366 184.12940285 82.32759243 195.75629629 110 197 C110.0825 195.783125 110.165 194.56625 110.25 193.3125 C112.47698712 174.65786763 123.38732689 152.77785936 137.8125 140.5625 C138.37839844 140.12035156 138.94429687 139.67820313 139.52734375 139.22265625 C141.20931901 137.92251031 141.20931901 137.92251031 142.875 135.5 C146.02331122 131.79610445 149.89750303 129.55107802 154 127 C155.12921875 126.25556641 155.12921875 126.25556641 156.28125 125.49609375 C169.96875366 116.75890391 187.58367979 110.08598957 204 112 C206.34888392 112.76680263 207.9294781 113.61965206 210 115 C210 115.66 210 116.32 210 117 C210.66 117 211.32 117 212 117 C216.25961372 136.27131692 208.51886649 155.85878547 198.47827148 172.02294922 C197.38053764 173.72341421 196.19738301 175.36816829 195 177 C194.34 177 193.68 177 193 177 C192.7525 177.5775 192.505 178.155 192.25 178.75 C190.81700012 181.32939979 189.21575324 183.06121592 187 185 C186.34 185 185.68 185 185 185 C184.690625 186.11375 184.690625 186.11375 184.375 187.25 C182.58814055 190.82371889 180.43960007 192.06522496 177 194 C176.34 194 175.68 194 175 194 C174.67 194.99 174.34 195.98 174 197 C167.35032046 202.17742577 159.74143868 205.78318965 152 209 C150.48792969 209.66708984 150.48792969 209.66708984 148.9453125 210.34765625 C124.50027172 220.59783838 93.39145446 217.98769248 69 209 C67.77925781 208.59523437 66.55851563 208.19046875 65.30078125 207.7734375 C58.86377906 205.6161719 53.20248042 203.20081529 47.4921875 199.53125 C44.73821594 197.83915462 41.91523951 196.4570675 39 195.0625 C34.11944246 192.67215021 29.81261202 189.91451868 25.4296875 186.71484375 C23.01838188 185.01297371 20.55786557 183.53267507 18 182.0625 C13.31988149 179.3225572 9.1981116 176.09811486 5.03125 172.63671875 C3.09867386 170.96060449 3.09867386 170.96060449 1 170 C1 169.34 1 168.68 1 168 C0.47792969 167.78214844 -0.04414063 167.56429687 -0.58203125 167.33984375 C-3.95871208 165.4687589 -6.75258151 163.05539311 -9.6875 160.5625 C-10.28111328 160.07201172 -10.87472656 159.58152344 -11.48632812 159.07617188 C-15.87821594 155.36535218 -15.87821594 155.36535218 -17 152 C-17.804375 151.690625 -18.60875 151.38125 -19.4375 151.0625 C-22.52921144 149.78057087 -22.63533604 148.91128311 -24 146 C-25.32407669 145.31513275 -26.65909241 144.65129797 -28 144 C-29.71108689 142.37897032 -31.37253306 140.70496537 -33 139 C-33.54527344 138.47535156 -34.09054687 137.95070312 -34.65234375 137.41015625 C-36.13974595 135.97875037 -37.57387006 134.49246156 -39 133 C-39 132.34 -39 131.68 -39 131 C-39.66 131 -40.32 131 -41 131 C-41 130.34 -41 129.68 -41 129 C-41.99 128.67 -42.98 128.34 -44 128 C-44 127.34 -44 126.68 -44 126 C-44.99 125.67 -45.98 125.34 -47 125 C-47.309375 124.195625 -47.61875 123.39125 -47.9375 122.5625 C-48.71242177 119.8942878 -48.71242177 119.8942878 -50.80078125 119.12109375 C-53.59982295 117.6942288 -55.18461005 115.85607446 -57.25 113.5 C-57.95640625 112.7059375 -58.6628125 111.911875 -59.390625 111.09375 C-61 109 -61 109 -61 107 C-61.66 107 -62.32 107 -63 107 C-68 101.52380952 -68 101.52380952 -68 99 C-68.66 99 -69.32 99 -70 99 C-79.83754288 89.44691619 -79.83754288 89.44691619 -80.08984375 84.09375 C-79.54743231 76.63906965 -75.07554969 73.07554969 -70 68 C-69.34 67.175 -68.68 66.35 -68 65.5 C-66 63 -66 63 -63.75 60.8125 C-60.48574163 57.47405394 -57.75678743 53.84670951 -54.96484375 50.109375 C-52.91596275 47.90978108 -51.93309912 47.33969077 -49 47 C-48.85884766 46.12601563 -48.85884766 46.12601563 -48.71484375 45.234375 C-47.84037621 42.50106664 -46.60942413 41.24160186 -44.5625 39.25 C-43.94503906 38.63640625 -43.32757813 38.0228125 -42.69140625 37.390625 C-41 36 -41 36 -39 36 C-38.79375 35.46375 -38.5875 34.9275 -38.375 34.375 C-36.46749574 31.08021991 -33.95180616 28.40636372 -31 26 C-30.34 26 -29.68 26 -29 26 C-28.76023437 25.42121094 -28.52046875 24.84242187 -28.2734375 24.24609375 C-26.74962604 21.55838949 -24.98794738 20.04470669 -22.625 18.0625 C-20.16535309 15.99359967 -18.06947987 14.08941262 -16.09375 11.546875 C-13.64178059 8.56425549 -10.97453576 6.48359344 -7.875 4.1875 C-6.82054687 3.39730469 -5.76609375 2.60710938 -4.6796875 1.79296875 C-2 0 -2 0 0 0 Z M181.3125 134.625 C180.60569092 134.89425293 179.89888184 135.16350586 179.1706543 135.44091797 C171.49866015 138.45438412 164.07009475 142.33457823 158 148 C158 148.66 158 149.32 158 150 C156.9790625 150.2475 156.9790625 150.2475 155.9375 150.5 C151.64890797 152.68991933 148.80490944 156.12000999 146 160 C146 160.66 146 161.32 146 162 C145.34 162 144.68 162 144 162 C143.56131592 162.79434448 143.56131592 162.79434448 143.11376953 163.60473633 C141.78552194 166.00806889 140.45528352 168.41029381 139.125 170.8125 C138.66480469 171.64587891 138.20460938 172.47925781 137.73046875 173.33789062 C137.28574219 174.14033203 136.84101562 174.94277344 136.3828125 175.76953125 C135.97434082 176.50792236 135.56586914 177.24631348 135.14501953 178.00708008 C134.16513154 179.71258662 133.09107329 181.36339006 132 183 C131.55570562 185.04869074 131.18705805 187.11454293 130.875 189.1875 C130.70742188 190.27417969 130.53984375 191.36085937 130.3671875 192.48046875 C130.24601563 193.31191406 130.12484375 194.14335937 130 195 C138.92751152 194.09634264 145.38110332 191.65599241 153 187 C154.22791822 186.35179616 155.45691791 185.70563227 156.6875 185.0625 C160.15516932 182.90338514 163.02881529 180.51060138 166.0390625 177.765625 C167.22845759 176.69469555 168.44665954 175.65327798 169.7109375 174.671875 C178.81039317 167.58028044 184.91448767 158.02988165 189.5625 147.625 C189.89693115 146.87637695 190.2313623 146.12775391 190.57592773 145.35644531 C192.472418 140.87591844 193.53346755 136.84426849 194 132 C189.36119037 131.6231528 185.57264866 132.98256945 181.3125 134.625 Z " fill="#DBDCDD" transform="translate(378,28)"/>
<path d="M0 0 C6.27 0 12.54 0 19 0 C19.33 1.32 19.66 2.64 20 4 C21.37297241 3.02208496 21.37297241 3.02208496 22.77368164 2.02441406 C27.8644795 -0.86640256 32.90516565 -0.50220841 38.62109375 -0.390625 C39.72099136 -0.38496521 40.82088898 -0.37930542 41.95411682 -0.37347412 C45.44903039 -0.35117743 48.94289903 -0.30099149 52.4375 -0.25 C54.81443826 -0.22992642 57.19139268 -0.21167716 59.56835938 -0.1953125 C65.37925962 -0.15133462 71.18955513 -0.08448909 77 0 C74.03218652 1.97854232 71.69376847 2.57513122 68.27734375 3.390625 C54.41688979 7.09942572 39.89491101 15.07005933 28 23 C27.01 23 26.02 23 25 23 C21.67498666 32.97504001 28.60388682 46.20142345 32.10058594 55.58154297 C32.91007671 57.75820301 33.69546873 59.94195113 34.4765625 62.12890625 C39.41505712 75.35800217 46.9048623 86.24444207 56 97 C60.33549821 95.67576833 63.33362461 94.06675084 66.97265625 91.359375 C74.74945857 86.14487171 84.03775063 83.40322612 93 81 C93.61987793 80.82122314 94.23975586 80.64244629 94.87841797 80.45825195 C102.1255008 78.57157272 109.42605072 78.56305976 116.875 78.5625 C117.55853546 78.56043549 118.24207092 78.55837097 118.94631958 78.5562439 C130.54197257 78.56251722 141.07543167 79.99859163 152 84 C152.67643555 84.23428711 153.35287109 84.46857422 154.04980469 84.70996094 C165.71966925 88.86232605 178.03847722 96.55771583 185 107 C185.58922568 111.15518885 185.62495003 114.83532041 183.625 118.5625 C182 120 182 120 180 120 C179.77054688 120.58007812 179.54109375 121.16015625 179.3046875 121.7578125 C173.5355533 131.67243235 157.89728352 137.45293729 147.375 140.25 C144.92480062 140.86660647 142.46548015 141.44765211 140 142 C138.87356079 142.26816528 138.87356079 142.26816528 137.72436523 142.54174805 C131.21768317 143.99450799 124.96820657 144.34889045 118.3125 144.3125 C117.25957764 144.30831055 116.20665527 144.30412109 115.12182617 144.29980469 C106.73602368 144.17893289 99.11419777 143.21820081 91 141 C89.92105469 140.73316406 88.84210938 140.46632812 87.73046875 140.19140625 C75.41026676 136.83947705 62.76050795 130.25889135 53 122 C53 121.34 53 120.68 53 120 C52.401875 119.71125 51.80375 119.4225 51.1875 119.125 C49 118 49 118 46 116 C46 115.34 46 114.68 46 114 C45.34 114 44.68 114 44 114 C44 113.34 44 112.68 44 112 C43.01 111.67 42.02 111.34 41 111 C39.2995217 109.03318172 37.73336314 107.08217707 36.1875 105 C35.74100098 104.40550049 35.29450195 103.81100098 34.83447266 103.19848633 C33.5465545 101.47261995 32.27155113 99.73794411 31 98 C30.43667969 97.24074219 29.87335938 96.48148437 29.29296875 95.69921875 C22.4815473 86.03563184 17.30340894 74.97654276 13.85546875 63.69921875 C13.06019887 61.18994256 12.11245991 58.84867276 11.0625 56.4375 C3.83793879 38.33359956 2.120006 19.19849013 0 0 Z M86.375 103.375 C85.61678955 103.65480713 84.8585791 103.93461426 84.07739258 104.22290039 C79.33087682 106.10289291 76.35483789 108.14127342 73 112 C78.21264761 115.77085147 83.46971881 118.07457645 89.5 120.1875 C90.5672229 120.56189209 90.5672229 120.56189209 91.65600586 120.94384766 C112.65593796 128.09902268 133.17992871 126.76362768 153.07739258 117.14477539 C155.74685419 115.81563774 158.37862754 114.42127538 161 113 C161.03856528 111.0939644 161.03856528 111.0939644 160 109 C157.65320415 107.60808664 155.48830148 106.50519344 153 105.4375 C152.31446045 105.13303955 151.6289209 104.8285791 150.92260742 104.51489258 C129.30043489 95.04322163 108.43534836 95.07801587 86.375 103.375 Z " fill="#DADBDD" transform="translate(389,0)"/>
<path d="M0 0 C6.6 0 13.2 0 20 0 C22 5 22 5 22.8046875 8.7265625 C24.01480818 13.76833731 26.51461278 17.93661052 29.125 22.375 C30.04791235 23.96403641 30.96736951 25.55508629 31.8828125 27.1484375 C32.28902832 27.84114746 32.69524414 28.53385742 33.11376953 29.24755859 C34 31 34 31 34 33 C34.99 33.33 35.98 33.66 37 34 C38.60546875 35.55859375 38.60546875 35.55859375 40.1875 37.4375 C40.71730469 38.05496094 41.24710938 38.67242187 41.79296875 39.30859375 C43 41 43 41 43 43 C43.66 43.185625 44.32 43.37125 45 43.5625 C47.87132137 44.93834149 49.49892479 46.24395537 51.8125 48.375 C55.62019218 51.81903619 59.3260938 53.9512859 64 56 C64.71027344 56.34933594 65.42054688 56.69867188 66.15234375 57.05859375 C71.64403533 59.69344753 76.99506131 61.04723311 83 62 C80.0858278 48.88622509 74.70611436 36.33039179 65.3203125 26.55859375 C64 25 64 25 64 23 C63.46375 22.773125 62.9275 22.54625 62.375 22.3125 C59.17539839 20.54429911 56.70962777 18.46329797 54 16 C54 15.34 54 14.68 54 14 C53.113125 13.731875 52.22625 13.46375 51.3125 13.1875 C48.2090334 12.0749365 45.68889315 10.89804222 43 9 C43 8.34 43 7.68 43 7 C42.29875 6.896875 41.5975 6.79375 40.875 6.6875 C37.59846165 5.90397996 35.00986373 4.50493186 32 3 C29.68259587 2.23376154 27.36444701 1.61475622 25 1 C25 0.67 25 0.34 25 0 C30.67407841 -0.17407496 36.34657678 -0.30054799 42.02270508 -0.38452148 C43.95006409 -0.41955263 45.87723938 -0.46719452 47.80395508 -0.52807617 C65.88256119 -1.08470078 65.88256119 -1.08470078 71.578125 3.26953125 C73.39941406 5.08129883 73.39941406 5.08129883 75 7 C75.66483398 7.71575195 76.32966797 8.43150391 77.01464844 9.16894531 C78.75246423 11.05968134 80.38177419 13.00671665 82 15 C82.763125 15.886875 83.52625 16.77375 84.3125 17.6875 C86.0367793 20.05040126 87.05432252 22.241774 88 25 C88.66 25 89.32 25 90 25 C98.08386176 40.1193841 104.54665913 55.46245837 103 73 C101.8478207 76.40283463 100.83366939 78.73306449 98 81 C83.33608814 85.88797062 65.2408098 79.58293876 52 73 C44.94932528 68.91654011 37.37826008 64.20256628 32 58 C32 57.34 32 56.68 32 56 C31.26523437 55.77183594 30.53046875 55.54367188 29.7734375 55.30859375 C24.46810288 52.80537249 21.43748643 47.60908647 18 43 C17.39929688 42.19691406 16.79859375 41.39382812 16.1796875 40.56640625 C12.06117236 34.58019238 9.09809806 28.1316391 6.1875 21.5 C5.80207031 20.63391113 5.41664063 19.76782227 5.01953125 18.87548828 C2.37086473 12.63773773 1.02120221 6.69995098 0 0 Z " fill="#DBDCDE" transform="translate(488,0)"/>
<path d="M0 0 C5.83244127 3.92981965 10.12776557 9.20217074 14 15 C14.515625 15.76183594 15.03125 16.52367187 15.5625 17.30859375 C24.83655178 31.79929966 27.57797696 49.12227327 27.5 66.0625 C27.50023163 66.72833099 27.50046326 67.39416199 27.5007019 68.08016968 C27.47165531 80.31353594 26.57800033 93.84399933 21 105 C14.07 105 7.14 105 0 105 C1.58054003 99.07297488 3.24095397 93.21279226 5.125 87.375 C6.72379483 82.19417249 7.78754545 77.41297247 8 72 C8.03996094 71.10023438 8.07992187 70.20046875 8.12109375 69.2734375 C8.44400551 54.87537174 5.284905 42.88529393 -0.27563477 29.77075195 C-0.91585507 28.20569706 -1.46527775 26.60416675 -2 25 C-2.66 25 -3.32 25 -4 25 C-4 24.34 -4 23.68 -4 23 C-12.30094189 30.01671545 -16.72098689 44.27074533 -17.828125 54.72265625 C-18.70283231 71.40173419 -16.80504939 84.89967119 -10.4609375 100.38671875 C-9 104 -9 104 -9 105 C-15.93 105 -22.86 105 -30 105 C-34.7604833 93.83748744 -37.46692543 83.14410506 -38 71 C-38.04125 70.21496094 -38.0825 69.42992187 -38.125 68.62109375 C-38.56837303 52.24400239 -35.20025567 36.66555142 -28 22 C-27.60039063 21.1853125 -27.20078125 20.370625 -26.7890625 19.53125 C-25.8708332 17.68176687 -24.93730265 15.83989039 -24 14 C-23.34 14 -22.68 14 -22 14 C-21.73703125 13.42378906 -21.4740625 12.84757813 -21.203125 12.25390625 C-16.79258375 3.99130137 -9.82746212 -3.04990204 0 0 Z " fill="#DADBDD" transform="translate(625,158)"/>
<path d="M0 0 C6.27 0 12.54 0 19 0 C19.391875 2.866875 19.78375 5.73375 20.1875 8.6875 C21.94973897 20.40232707 25.43602026 30.06025925 32 40 C32 40.66 32 41.32 32 42 C32.66 42 33.32 42 34 42 C34.2475 41.34 34.495 40.68 34.75 40 C35.70827367 37.70014319 36.72505209 35.57529403 37.875 33.375 C43.29325291 22.49820978 45.20409248 11.94278503 47 0 C52.94 0 58.88 0 65 0 C66.29381779 23.54748383 58.42708745 43.2761739 43.21875 61.0859375 C40.12265332 64.19663841 37.51793772 65.45533569 33.125 65.875 C27.86026873 65.48531445 24.95781287 63.40565197 21.296875 59.71875 C12.79395174 49.65406533 7.42862341 39.72089257 4 27 C3.69449219 25.98292969 3.38898437 24.96585938 3.07421875 23.91796875 C0.81942637 15.93536255 0.38218458 8.25518699 0 0 Z " fill="#DADBDD" transform="translate(587,0)"/>
<path d="M0 0 C5.04294287 4.75161749 8.26197318 10.01192252 8.890625 17.01171875 C9.05629715 25.58525245 7.54067657 32.8370443 1.453125 39.17578125 C-5.55418594 45.42345008 -12.34046802 46.73112302 -21.56640625 46.2265625 C-26.68909311 45.57487554 -29.56509457 44.21172878 -33.3125 40.75 C-34.03179688 40.15703125 -34.75109375 39.5640625 -35.4921875 38.953125 C-39.71808062 35.19343362 -42.38303954 31.98251432 -43.19921875 26.30859375 C-43.56539026 18.03816838 -43.53797991 10.46847417 -38.3125 3.75 C-36.0625 2.3125 -36.0625 2.3125 -34.3125 1.75 C-34.3125 1.09 -34.3125 0.43 -34.3125 -0.25 C-23.87294761 -8.56537548 -10.31297886 -8.51442596 0 0 Z " fill="#DADBDD" transform="translate(637.3125,91.25)"/>
<path d="M0 0 C0 6.93 0 13.86 0 21 C-3.63 20.01 -7.26 19.02 -11 18 C-9.05238913 26.81550184 -6.71403952 34.76771547 -1.43823242 42.20019531 C0.35981865 45.70045836 0.34304712 48.12797583 0.29296875 52.05078125 C0.28872391 52.70958786 0.28447906 53.36839447 0.28010559 54.04716492 C0.26341196 56.13603885 0.22578058 58.22392139 0.1875 60.3125 C0.17244097 61.73501203 0.15875469 63.1575393 0.14648438 64.58007812 C0.11354003 68.05370351 0.06182408 71.52675487 0 75 C-1.12020689 74.04345481 -2.23989942 73.08630722 -3.359375 72.12890625 C-4.29475098 71.32948608 -4.29475098 71.32948608 -5.24902344 70.51391602 C-8.06730522 68.07719469 -10.4849341 65.86130465 -12.40625 62.6484375 C-13.89014922 60.18254615 -15.51031898 57.97591219 -17.25 55.6875 C-27.5011665 41.07090031 -32.26370481 23.81337736 -31 6 C-30.67 5.01 -30.34 4.02 -30 3 C-29.34 3 -28.68 3 -28 3 C-28 2.34 -28 1.68 -28 1 C-19.46086608 -4.69275594 -9.4359856 -1.88719712 0 0 Z " fill="#DBDCDD" transform="translate(680,142)"/>
<path d="M0 0 C0.15002002 4.08900718 0.25798279 8.17691684 0.32958984 12.26806641 C0.35948354 13.65506948 0.40021646 15.04188818 0.45263672 16.42822266 C0.80454297 25.98489237 -0.33429882 32.16714704 -6 40 C-8.51351712 45.25210801 -9.48389195 50.21958986 -10 56 C-5.05 55.505 -5.05 55.505 0 55 C0 61.27 0 67.54 0 74 C-10.24548736 76.27677497 -10.24548736 76.27677497 -15.6875 76.25 C-16.74324219 76.25515625 -17.79898438 76.2603125 -18.88671875 76.265625 C-22.34331789 75.97070813 -24.87045268 75.52319226 -28 74 C-32.76197138 67.01778458 -31.70079042 58.52974677 -30.4609375 50.515625 C-29.05067287 43.91372682 -27.00606509 38.02179598 -24 32 C-23.25943359 30.37771484 -23.25943359 30.37771484 -22.50390625 28.72265625 C-19.1837817 21.66068233 -8.67077169 0 0 0 Z " fill="#DBDCDD" transform="translate(680,6)"/>
<path d="M0 0 C6 3.33333333 12 6.66666667 18 10 C17.67 19.9 17.34 29.8 17 40 C10.73 40 4.46 40 -2 40 C-2.07037173 30.49981698 -2.11310765 21.04820566 -1.5625 11.5625 C-1.52326416 10.8600415 -1.48402832 10.15758301 -1.44360352 9.43383789 C-1.23648439 6.18950167 -0.94892342 3.11789123 0 0 Z " fill="#DADBDD" transform="translate(389,223)"/>
<path d="M0 0 C3.43749485 2.2656216 4.40863045 3.9374324 5.75 7.8125 C6.3109452 13.04798855 5.57799347 16.36851027 2.75 20.8125 C-0.21801872 24.12298242 -3.67057157 24.53477431 -7.93359375 24.87890625 C-12.35455423 24.75216708 -15.80898894 23.31411432 -18.921875 20.0703125 C-20.61922307 17.18482079 -20.65021081 15.20702863 -20.625 11.875 C-20.63273437 10.85535156 -20.64046875 9.83570313 -20.6484375 8.78515625 C-20.19394693 5.39430017 -19.29468454 3.53716102 -17.25 0.8125 C-10.94503325 -2.82498082 -6.67213526 -2.43789558 0 0 Z " fill="#DBDBDD" transform="translate(464.25,32.1875)"/>
<path d="M0 0 C3.33713897 2.48146231 5.01306175 4.96252536 6 9 C6.07507417 13.57952452 5.61248144 17.00735766 3.1875 20.9375 C-1.08538001 24.96621543 -4.78455651 25.487714 -10.51953125 25.39453125 C-14.55928065 24.75198843 -16.25017157 22.9613537 -19 20 C-21.1040738 15.79185241 -20.5251084 10.57082992 -20 6 C-18.3537948 2.26765546 -15.81596205 0.44507021 -12.25 -1.5 C-7.80916973 -2.18320466 -4.19951532 -1.55981998 0 0 Z " fill="#DADBDD" transform="translate(464,167)"/>
<path d="M0 0 C2.42018075 1.9361446 3.38018129 2.76292079 4.1875 5.75 C4.1875 12.39169381 4.1875 12.39169381 1.98828125 15.37890625 C-0.50227792 17.6733584 -2.5471743 18.70668152 -5.875 19.25 C-9.92034867 18.56143001 -12.63118438 17.3250875 -15.125 14 C-16.32594463 10.06963575 -16.33073822 6.34790118 -15.0625 2.4375 C-11.40813787 -2.49588888 -5.26034136 -2.33792949 0 0 Z " fill="#DADCDD" transform="translate(384.8125,105.25)"/>
<path d="M0 0 C0 10.89 0 21.78 0 33 C-8.13855422 28.34939759 -8.13855422 28.34939759 -11 24 C-11 23.34 -11 22.68 -11 22 C-11.66 22 -12.32 22 -13 22 C-14.01443742 18.0160276 -14.76467127 14.56484513 -12.90625 10.76171875 C-4.961629 0 -4.961629 0 0 0 Z " fill="#DADBDD" transform="translate(680,95)"/>
<path d="M0 0 C0 1.32 0 2.64 0 4 C-6.6 4 -13.2 4 -20 4 C-20 3.01 -20 2.02 -20 1 C-6.3667426 -0.14806378 -6.3667426 -0.14806378 0 0 Z " fill="#DADBDD" transform="translate(508,259)"/>
</svg>
