<?xml version="1.0" encoding="UTF-8"?>
<svg version="1.1" xmlns="http://www.w3.org/2000/svg" width="1371" height="657">
<path d="M0 0 C452.43 0 904.86 0 1371 0 C1371 216.81 1371 433.62 1371 657 C918.57 657 466.14 657 0 657 C0 440.19 0 223.38 0 0 Z " fill="#010101" transform="translate(0,0)"/>
<path d="M0 0 C0.13575439 0.68400879 0.27150879 1.36801758 0.41137695 2.07275391 C0.8158152 4.10846636 1.22196785 6.14383862 1.62939453 8.17895508 C2.08636921 10.48424373 2.53390324 12.79142308 2.97216797 15.1003418 C4.3443293 22.32518531 4.3443293 22.32518531 6.45703125 29.35546875 C7.64494278 32.87152795 8.37892751 35.30302773 8 39 C4.92808425 43.26780915 1.17594248 46.20737514 -2.97167969 49.39111328 C-6.46253092 52.16009614 -9.65098101 55.24130738 -12.875 58.3125 C-13.91358154 59.28968994 -13.91358154 59.28968994 -14.97314453 60.28662109 C-21.46384397 66.41696635 -27.80473793 72.69501891 -34.125 79 C-34.86191071 79.73302841 -34.86191071 79.73302841 -35.6137085 80.48086548 C-40.75965628 85.60535114 -45.81110299 90.7537134 -50.50927734 96.29492188 C-52.0995516 98.11386642 -53.77535882 99.80862192 -55.5 101.5 C-59.21196125 105.16290449 -62.6017927 109.04685609 -66 113 C-66.96949346 114.11767231 -67.93959772 115.23481495 -68.91015625 116.3515625 C-75.30753791 123.71491672 -81.67627987 131.10225858 -88.015625 138.515625 C-90.06102383 140.90687727 -92.11388177 143.29145443 -94.171875 145.671875 C-99.62405747 151.98692022 -104.98562712 158.32594032 -110 165 C-108.65000548 167.91967106 -107.10581709 170.28105061 -105.05859375 172.7578125 C-104.47940186 173.46083496 -103.90020996 174.16385742 -103.3034668 174.88818359 C-102.68769775 175.62633301 -102.07192871 176.36448242 -101.4375 177.125 C-100.48967651 178.2689624 -100.48967651 178.2689624 -99.52270508 179.43603516 C-95.48479207 184.28647704 -91.34739261 189.02311694 -87.078125 193.671875 C-84.77248574 196.25488439 -82.6056997 198.92581262 -80.4375 201.625 C-77.17175979 205.66614127 -73.73924818 209.31542367 -70.01171875 212.92578125 C-67.77434777 215.23266279 -65.80788903 217.66873025 -63.8125 220.1875 C-59.77759192 225.22239397 -55.40591746 229.74939887 -50.78051758 234.2331543 C-47.93997479 236.99946918 -45.24778009 239.82231436 -42.66015625 242.828125 C-38.66685273 247.44965679 -34.39070168 251.75621327 -30.0625 256.0625 C-29.30259766 256.82626953 -28.54269531 257.59003906 -27.75976562 258.37695312 C-23.55778092 262.57176108 -19.26121077 266.57861936 -14.76196289 270.4519043 C-12.45092607 272.48242729 -10.31877551 274.65787626 -8.1875 276.875 C-3.91466599 281.20026142 0.58823252 285.04836668 5.3359375 288.83984375 C7.859767 290.88629201 10.27937426 293.00694628 12.6875 295.1875 C19.38089971 301.24060489 19.38089971 301.24060489 27 306 C27.13825195 305.055802 27.13825195 305.055802 27.27929688 304.0925293 C28.58544518 296.05028393 30.89136554 288.51967035 33.5 280.8125 C33.71798248 280.16336639 33.93596497 279.51423279 34.16055298 278.84542847 C38.49591789 265.96874761 43.49268148 253.42241348 49 241 C49.47300537 239.92540527 49.47300537 239.92540527 49.95556641 238.82910156 C51.87246313 234.50406997 53.89158175 230.23515184 56 226 C56.36561035 225.26475098 56.7312207 224.52950195 57.10791016 223.77197266 C62.38500828 213.25449792 68.10464757 203.27540716 74.86132812 193.63964844 C75.95808816 192.06035162 77.01892428 190.4562914 78.078125 188.8515625 C78.69171875 187.93117188 79.3053125 187.01078125 79.9375 186.0625 C80.46214844 185.26972656 80.98679687 184.47695313 81.52734375 183.66015625 C82.01332031 183.11230469 82.49929688 182.56445312 83 182 C83.99 182 84.98 182 86 182 C87.11253708 183.35590457 88.21904113 184.717057 89.30078125 186.09765625 C93.0199763 190.26144473 97.63418803 193.54566739 102 197 C103.89614436 198.52044554 105.79199887 200.04125264 107.6875 201.5625 C109.12449468 202.70896699 110.56179506 203.8550516 112 205 C110.50581186 209.30583249 108.21180165 212.7938462 105.625 216.5 C92.6928228 235.54122785 81.96131531 255.99319011 74.70703125 277.87304688 C73.83799441 280.48735936 72.9494841 283.09484799 72.0625 285.703125 C67.10785724 300.34205097 62.63327843 314.97143921 59 330 C60.04607422 330.37125 60.04607422 330.37125 61.11328125 330.75 C64.42216604 332.18280532 67.19001777 333.99451607 70.1875 336 C111.15574431 362.87406845 156.82610074 379.98296594 206 382 C205.95617187 381.03835938 205.91234375 380.07671875 205.8671875 379.0859375 C205.8742205 374.41367796 206.95532972 370.12652461 208.125 365.625 C208.34945801 364.75012939 208.57391602 363.87525879 208.80517578 362.97387695 C217.22943932 330.99930968 233.19388881 301.00643283 256 277 C257.15236175 275.6513845 258.29869836 274.29758537 259.4375 272.9375 C273.83370444 256.56016651 292.64570096 243.7638378 312 234 C312.63711914 233.67064453 313.27423828 233.34128906 313.93066406 233.00195312 C321.32178387 229.20346906 328.84338099 226.22248226 336.75 223.6875 C337.50595459 223.44483398 338.26190918 223.20216797 339.04077148 222.95214844 C350.06539128 219.57831176 360.61147999 218.63643349 372.125 218.625 C373.43082031 218.60050781 374.73664062 218.57601562 376.08203125 218.55078125 C383.43766115 218.52846892 389.76743102 218.76549255 396 223 C397.9375 225.0703125 397.9375 225.0703125 399 227.125 C399.37125 227.80820312 399.7425 228.49140625 400.125 229.1953125 C400.41375 229.79085937 400.7025 230.38640625 401 231 C401.33 231.66 401.66 232.32 402 233 C403.80793615 257.06924099 400.15644145 278.58028656 390.93310547 300.72558594 C389.54009907 304.12099349 388.27033526 307.55703529 387 311 C386.34 311 385.68 311 385 311 C384.78601562 311.78761719 384.57203125 312.57523437 384.3515625 313.38671875 C382.54931981 318.2048531 380.0293767 322.41831745 377.375 326.8125 C376.83593018 327.70743164 376.29686035 328.60236328 375.74145508 329.52441406 C372.0097921 335.60778764 368.04808374 340.9408459 363 346 C361.88676224 347.26289472 360.78268742 348.53392035 359.6875 349.8125 C358.45942655 351.20929526 357.23013844 352.60502301 356 354 C355.21109375 354.90621094 354.4221875 355.81242187 353.609375 356.74609375 C342.5758622 369.24359349 330.09397135 379.16234165 316 388 C315.40106934 388.3825293 314.80213867 388.76505859 314.18505859 389.15917969 C297.51339481 399.77870813 279.93087567 407.37847191 261 413 C260.27683594 413.21527344 259.55367187 413.43054688 258.80859375 413.65234375 C241.64073613 418.63656048 224.09585389 419.44367664 206.3125 419.4375 C204.91576553 419.43860275 204.91576553 419.43860275 203.49081421 419.43972778 C145.17558985 419.31976447 89.67714254 395.52519276 42 363 C40.8857666 362.24082275 40.8857666 362.24082275 39.74902344 361.46630859 C13.53632182 343.52165649 -11.45578983 323.77727662 -34.671875 302.08203125 C-36.46618174 300.40527385 -38.27652343 298.75550213 -40.11645508 297.12866211 C-47.11361291 290.93575884 -53.73956765 284.41351751 -60.33276367 277.79760742 C-62.19142108 275.93356756 -64.05539614 274.07496488 -65.91992188 272.21679688 C-76.71042025 261.43169546 -76.71042025 261.43169546 -81.61254883 255.60180664 C-83.1626719 253.81219596 -84.80998366 252.15739339 -86.5 250.5 C-89.47057406 247.57532885 -92.20729119 244.51380439 -94.92578125 241.35546875 C-97.01450391 238.98352946 -99.15563403 236.67077417 -101.3125 234.36108398 C-106.37823732 228.93520441 -111.20440954 223.40405947 -115.85546875 217.61328125 C-117.99874956 215.00152377 -120.2238033 212.49634698 -122.5 210 C-126.36459294 205.75429668 -130.01164084 201.37039646 -133.625 196.91015625 C-136.1749086 193.78567943 -138.76704437 190.70097944 -141.375 187.625 C-141.82834717 187.0877832 -142.28169434 186.55056641 -142.7487793 185.99707031 C-145.186048 183.11436235 -147.64752378 180.256955 -150.14453125 177.42578125 C-150.65387207 176.8416748 -151.16321289 176.25756836 -151.68798828 175.65576172 C-152.66657768 174.5344149 -153.65293141 173.41978341 -154.64794922 172.31298828 C-157.363909 169.18301631 -158 168.32322821 -158 164 C-156.34765625 161.58984375 -156.34765625 161.58984375 -154.0625 158.9375 C-153.23621094 157.96425781 -152.40992188 156.99101562 -151.55859375 155.98828125 C-150.71425781 155.00214844 -149.86992188 154.01601562 -149 153 C-147.537124 151.21204045 -146.07869523 149.42043191 -144.625 147.625 C-139.03110506 140.7880173 -133.3047207 134.06472657 -127.58398438 127.33398438 C-126.18019202 125.68166447 -124.77734706 124.02854668 -123.375 122.375 C-122.91552979 121.83375488 -122.45605957 121.29250977 -121.98266602 120.73486328 C-119.12684291 117.36123449 -116.3330001 113.94440554 -113.5625 110.5 C-109.18665755 105.11857796 -104.50691185 100.06001431 -99.77734375 94.9921875 C-97.61922281 92.67759738 -95.5082619 90.33104254 -93.4375 87.9375 C-89.73600205 83.6637898 -85.91259498 79.5043573 -82.08081055 75.34790039 C-80.13922696 73.24040959 -78.20323252 71.12807441 -76.27319336 69.01000977 C-69.49738427 61.59357053 -62.54240355 54.38494929 -55.42578125 47.29541016 C-53.73318653 45.60824042 -52.04609403 43.91569804 -50.359375 42.22265625 C-45.27209254 37.13226009 -40.1726752 32.12438758 -34.69482422 27.44970703 C-32.12180185 25.24881293 -29.66505524 22.93276474 -27.1875 20.625 C-22.43330131 16.22932213 -17.53253489 12.06894213 -12.48046875 8.015625 C-10.26118878 6.21224159 -8.1278091 4.34672913 -6 2.4375 C-3 0 -3 0 0 0 Z " fill="#949494" transform="translate(684,93)"/>
<path d="M0 0 C12.54 0 25.08 0 38 0 C38.268125 4.16625 38.53625 8.3325 38.8125 12.625 C39.61787849 24.4971855 40.91868404 36.21594757 42.75634766 47.97070312 C43 50 43 50 43 54 C48.57255256 50.98940486 54.12131442 47.94114657 59.63061523 44.81640625 C62.38531311 43.25713058 65.14767648 41.71176022 67.91162109 40.16894531 C69.26846856 39.40946604 70.62310095 38.64601088 71.97509766 37.87792969 C84.792664 30.62052416 98.2424392 25.21517169 112 20 C112.88478027 19.65735107 113.76956055 19.31470215 114.68115234 18.96166992 C122.27228511 16.09171482 130.02050582 13.95645341 137.875 11.9375 C138.547659 11.7629126 139.22031799 11.5883252 139.9133606 11.40844727 C151.51090228 8.41553328 163.08577917 6.27510056 175 5 C175.02505615 5.73001221 175.0501123 6.46002441 175.07592773 7.2121582 C175.19329415 10.57905724 175.31537175 13.94577046 175.4375 17.3125 C175.47681641 18.46041016 175.51613281 19.60832031 175.55664062 20.79101562 C175.81805602 27.88944906 176.26966214 34.93409325 177 42 C176.26587891 42.15557373 175.53175781 42.31114746 174.77539062 42.47143555 C155.20063441 46.62123246 155.20063441 46.62123246 136.03759766 52.31835938 C133.7375345 53.08780298 131.4235557 53.80236748 129.10546875 54.515625 C107.08542254 61.39226252 87.81015049 72.19836323 68.17529297 84.08349609 C64.89551461 86.06306399 61.61188705 88.03494919 58.31640625 89.98828125 C57.3426001 90.56747314 56.36879395 91.14666504 55.36547852 91.7434082 C53 93 53 93 51 93 C57.46145268 119.45081496 57.46145268 119.45081496 67.04296875 144.84765625 C68.11481993 147.25822769 68.99758408 149.69968284 69.875 152.1875 C74.32206189 164.65327978 79.92922093 176.49641087 86.4375 188 C86.82929443 188.69625488 87.22108887 189.39250977 87.62475586 190.10986328 C89.6875752 193.75575668 91.8011512 197.34729588 94.0625 200.875 C96 204 96 204 96 206 C96.66 206 97.32 206 98 206 C99.12109375 207.6953125 99.12109375 207.6953125 100.4375 210.125 C103.58263592 215.59378111 107.32481627 220.39170559 111.30444336 225.26416016 C113.38763736 227.83651495 114.94348122 229.83044365 116 233 C121.7674297 229.94869451 127.38592353 226.78022957 132.875 223.25 C138.63639934 219.66896256 144.57410547 216.62425296 150.6875 213.6875 C151.9876001 213.05666504 151.9876001 213.05666504 153.31396484 212.41308594 C158.37370835 210.02581656 163.3818448 208.13458625 168.7722168 206.63183594 C170.9251061 206.02124114 173.01840391 205.31575792 175.125 204.5625 C181.97748317 202.27434566 188.9592834 200.58655062 196 199 C196.97549805 198.76700195 196.97549805 198.76700195 197.97070312 198.52929688 C240.99363544 188.58105126 292.76141406 197.56084414 330.34375 219.99609375 C333.30311066 221.91295236 336.16290765 223.90713042 339 226 C339.84820313 226.62519531 340.69640625 227.25039062 341.5703125 227.89453125 C362.36301139 243.89643588 362.36301139 243.89643588 364.36328125 256.2421875 C364.76424973 262.86389555 362.49500503 268.79146578 358.44287109 274.00244141 C356.66789044 275.92989284 354.83545173 277.75613394 352.9375 279.5625 C351.9328772 280.53727295 351.9328772 280.53727295 350.90795898 281.53173828 C345.61866815 286.58247634 340.20650467 291.10522986 334 295 C333.18088135 295.52037842 333.18088135 295.52037842 332.34521484 296.05126953 C316.59998433 305.90994571 298.65507522 313.20184447 280.36230469 316.56298828 C278.69040991 316.87227845 277.02200064 317.20069399 275.35644531 317.54248047 C249.28175456 322.83876236 220.28776236 323.9492889 194.29931641 317.56445312 C191.98183124 316.9955398 189.65752683 316.48405466 187.32421875 315.984375 C179.04070312 314.17750183 170.95095596 311.96495145 163 309 C161.64648438 308.49919922 161.64648438 308.49919922 160.265625 307.98828125 C146.06733796 302.39917655 132.36580614 294.9270005 120 286 C119.0615625 285.35804688 118.123125 284.71609375 117.15625 284.0546875 C101.23011319 272.60264583 86.10306581 257.12972651 75 241 C74.09769191 239.73992642 73.19396473 238.48086818 72.2890625 237.22265625 C66.35995404 228.8893045 61.12322857 220.31101579 56.26123047 211.31933594 C54.81741457 208.66423509 53.34872906 206.02360156 51.87890625 203.3828125 C50.79377629 201.42214862 49.70913754 199.46121281 48.625 197.5 C48.11267822 196.58009277 47.60035645 195.66018555 47.07250977 194.71240234 C44.24731706 189.56281457 41.95742291 184.53518987 40 179 C39.24935591 177.32414343 38.48025946 175.65634967 37.6875 174 C30.53245044 158.30984682 25.82607042 141.8748131 20.99389648 125.36572266 C19.87432233 121.57440619 18.70977569 117.79811625 17.52294922 114.02734375 C16.82370187 111.31653612 16.78049739 108.78036644 17 106 C16.34 106 15.68 106 15 106 C12.98638425 96.86018385 11.13913154 87.70795736 9.46801758 78.5 C9.11061146 76.59085102 8.73462093 74.68517188 8.3503418 72.78125 C6.13586887 61.56299581 4.61660038 50.28978181 3.21020508 38.94433594 C2.81129504 35.74032186 2.3991973 32.53817918 1.98632812 29.3359375 C1.72576468 27.26051668 1.46597225 25.18499887 1.20703125 23.109375 C1.08519974 22.17156189 0.96336823 21.23374878 0.83784485 20.26751709 C-0.0013456 13.36467534 0 7.07802801 0 0 Z " fill="#949494" transform="translate(691,0)"/>
<path d="M0 0 C9.12890178 4.05315802 16.71270259 12.68902368 22.79296875 20.4140625 C23.46714844 21.26613281 24.14132812 22.11820312 24.8359375 22.99609375 C33.44052039 34.61608799 40.63480796 48.55352652 44.79296875 62.4140625 C45.26016206 63.86857139 45.72763837 65.32298939 46.1953125 66.77734375 C57.28296496 102.19473989 58.66667773 141.32411065 49.79296875 177.4140625 C49.56834961 178.33268066 49.34373047 179.25129883 49.11230469 180.19775391 C41.82251089 208.90595933 27.59875612 236.55598203 8.79296875 259.4140625 C8.05304688 260.33832031 7.313125 261.26257813 6.55078125 262.21484375 C-4.56443567 275.88875622 -17.16916125 288.74115251 -31.20703125 299.4140625 C-32.32254637 300.28396269 -33.43707451 301.15512954 -34.55078125 302.02734375 C-37.7482011 304.51914153 -40.95334927 306.99572891 -44.20703125 309.4140625 C-45.09617218 310.1113446 -45.98531311 310.80862671 -46.90139771 311.52703857 C-50.78473916 313.74384759 -53.79734935 313.95525217 -58.14013672 313.86816406 C-58.91154495 313.86874817 -59.68295319 313.86933228 -60.47773743 313.86993408 C-63.01036646 313.86716234 -65.54179706 313.83611517 -68.07421875 313.8046875 C-69.83683632 313.79722183 -71.59946221 313.79153044 -73.36209106 313.78753662 C-77.98843532 313.77230587 -82.6142727 313.7330464 -87.24041748 313.6887207 C-91.96619816 313.64771258 -96.69206121 313.6295138 -101.41796875 313.609375 C-110.68121158 313.56654944 -119.94407917 313.49832935 -129.20703125 313.4140625 C-126.391939 310.59897025 -122.94102957 309.45545306 -119.33203125 307.9140625 C-95.55304035 297.48862565 -73.13519132 285.21082242 -53.20703125 268.4140625 C-52.59859375 267.90568848 -51.99015625 267.39731445 -51.36328125 266.87353516 C-43.40008075 260.23280404 -43.40008075 260.23280404 -35.92578125 253.05859375 C-33.20703125 250.4140625 -33.20703125 250.4140625 -31.20703125 250.4140625 C-32.01140625 249.00640625 -32.01140625 249.00640625 -32.83203125 247.5703125 C-44.33203125 227.4453125 -44.33203125 227.4453125 -45.82397461 224.82739258 C-46.67596622 223.34073114 -47.53472051 221.85789266 -48.40454102 220.3815918 C-50.34900686 217.06921423 -51.92007579 213.86607296 -53.14453125 210.2265625 C-54.54702477 206.19577404 -56.08587113 202.27338157 -57.76953125 198.3515625 C-61.22058542 190.12619719 -63.32779737 182.23960812 -64.671875 173.4296875 C-65.34806598 169.61932663 -66.38585415 165.97301608 -67.5234375 162.27734375 C-69.22419584 155.15359594 -69.37396337 147.87133432 -69.41015625 140.578125 C-69.41585632 139.65929535 -69.4215564 138.7404657 -69.4274292 137.79379272 C-69.43682237 135.85586679 -69.44339038 133.91792529 -69.44726562 131.97998047 C-69.45689065 129.08140462 -69.4879356 126.18356391 -69.51953125 123.28515625 C-69.58937931 111.04051118 -68.58028694 99.42514725 -66.20703125 87.4140625 C-66.00287598 86.35590332 -65.7987207 85.29774414 -65.58837891 84.20751953 C-59.18553405 53.0013668 -43.59960365 19.53306718 -16.8359375 0.75 C-11.69663782 -1.86165006 -5.49959033 -1.46006823 0 0 Z " fill="#959595" transform="translate(1147.20703125,343.5859375)"/>
<path d="M0 0 C0.6820752 0.20866699 1.36415039 0.41733398 2.06689453 0.63232422 C47.84856411 14.90857296 85.1662337 50.4356342 109 91 C109.52026921 91.67721698 110.04053843 92.35443396 110.57657337 93.05217266 C112.63906576 97.32346515 112.40455615 101.17962526 112.36076355 105.86445618 C112.36332682 106.86511508 112.3658901 107.86577398 112.36853105 108.89675587 C112.37347664 112.25335543 112.35696283 115.60950626 112.34057617 118.96606445 C112.33973007 121.37071217 112.34020471 123.77536067 112.34190369 126.18000793 C112.34258708 131.35886799 112.33407209 136.53762638 112.31719017 141.71645546 C112.29279776 149.20413986 112.28499466 156.69176945 112.2812262 164.17948928 C112.27466209 176.32810533 112.25470203 188.47666092 112.22631836 200.62524414 C112.19877674 212.42569679 112.17754367 224.22613302 112.16479492 236.02661133 C112.16361267 237.11788128 112.16361267 237.11788128 112.16240653 238.2311971 C112.15849138 241.88095721 112.15470027 245.53071743 112.15097082 249.18047774 C112.11987616 279.45370469 112.06457378 309.72682065 112 340 C92.53 340 73.06 340 53 340 C55.24336195 333.26991415 55.24336195 333.26991415 56.99609375 330.1015625 C57.38450439 329.38701904 57.77291504 328.67247559 58.1730957 327.9362793 C58.59034912 327.17355713 59.00760254 326.41083496 59.4375 325.625 C67.8115731 309.99576988 75.5469167 293.8975371 81 277 C81.40412109 275.82050781 81.40412109 275.82050781 81.81640625 274.6171875 C82.56889281 272.41882363 83.28566768 270.21102861 84 268 C84.44279297 266.69869141 84.44279297 266.69869141 84.89453125 265.37109375 C92.63158969 241.72836935 96.03498884 216.79080387 97 192 C95.700625 191.9175 94.40125 191.835 93.0625 191.75 C59.2817522 188.23907958 27.58536519 170.56815084 2 149 C1.45601562 148.5447998 0.91203125 148.08959961 0.3515625 147.62060547 C-10.96222165 138.13790046 -20.7310316 128.45474124 -29.68457031 116.70361328 C-30.83249486 115.21693595 -32.01867346 113.75995404 -33.2109375 112.30859375 C-44.42466656 98.32269746 -54.08885587 81.27204312 -59 64 C-59.27714844 63.1646875 -59.55429688 62.329375 -59.83984375 61.46875 C-60.64671014 58.99596543 -61.33474571 56.51443571 -62 54 C-62.41958984 52.56720703 -62.41958984 52.56720703 -62.84765625 51.10546875 C-65.13068346 41.98397864 -65.35154342 32.91446351 -65.4375 23.5625 C-65.45965576 22.25829102 -65.48181152 20.95408203 -65.50463867 19.61035156 C-65.4853519 11.04702364 -64.91710118 4.91710118 -58.625 -1.375 C-42.89917547 -11.11003423 -16.61103964 -5.33038135 0 0 Z " fill="#959594" transform="translate(1259,317)"/>
<path d="M0 0 C12.21 0 24.42 0 37 0 C37 2.31 37 4.62 37 7 C38.29296997 7.14912842 38.29296997 7.14912842 39.61206055 7.30126953 C48.02751558 8.37231703 55.79110404 10.13557558 63.8125 12.875 C64.96903076 13.26864746 66.12556152 13.66229492 67.31713867 14.06787109 C109.24712963 28.79085683 148.98625033 57.16819298 172.44140625 95.47265625 C174.39489692 98.64034664 176.5052139 101.68721535 178.640625 104.734375 C180.06294888 107.1049148 181.13574941 109.53822977 182.19189453 112.08984375 C183.02060219 114.04869836 183.9156269 115.96354159 184.83203125 117.8828125 C193.86761739 137.08173121 199.04878813 156.55865857 199.3125 177.8125 C199.33038574 178.79202637 199.34827148 179.77155273 199.36669922 180.78076172 C199.35793147 188.12687883 198.47359405 193.90800744 193.75 199.8125 C183.2862463 208.13594044 168.93461182 206.87385261 156.33544922 205.765625 C146.80889089 204.66004236 137.81366847 202.86564407 129 199 C127.69174091 198.46142592 126.3831153 197.92374173 125.07421875 197.38671875 C103.43265148 188.32108296 83.47659409 176.1690124 66.29296875 160.13671875 C64.71979899 158.67074965 63.11610052 157.23706966 61.48828125 155.83203125 C55.22165943 150.40991589 50.1045043 144.51103742 45 138 C44.35546875 137.23300781 43.7109375 136.46601563 43.046875 135.67578125 C29.88885327 119.9235967 18.87509207 101.31695646 12 82 C11.31921328 80.35137844 10.6320474 78.70537173 9.9375 77.0625 C2.08259241 57.39355802 -0.17896396 36.92884086 -0.0625 15.9375 C-0.041875 10.678125 -0.02125 5.41875 0 0 Z " fill="#959594" transform="translate(887,0)"/>
<path d="M0 0 C0.186095 12.5355661 0.32787821 25.07079879 0.41449738 37.60746956 C0.45608966 43.43005604 0.51242445 49.25169131 0.60351562 55.07373047 C0.69101306 60.7018748 0.73839388 66.32910948 0.75901794 71.95788193 C0.77369802 74.09559304 0.80236365 76.2332594 0.84584045 78.37057877 C1.10996106 91.90403002 0.2154775 100.94780877 -8 112 C-9.00097534 113.52721491 -9.99729973 115.05751452 -10.984375 116.59375 C-11.89749755 117.90198612 -12.81934668 119.20417635 -13.75 120.5 C-14.2553125 121.20793701 -14.760625 121.91587402 -15.28125 122.64526367 C-40.50372705 157.47054332 -77.25980866 185.35476062 -119 197 C-120.11632813 197.31839844 -121.23265625 197.63679687 -122.3828125 197.96484375 C-130.55221293 199.94779665 -138.49328881 200.30355455 -146.875 200.375 C-147.93315918 200.38893799 -148.99131836 200.40287598 -150.08154297 200.41723633 C-157.7690873 200.37059008 -164.72137968 199.69575449 -170.8125 194.6875 C-179.77214706 183.67993361 -178.89979008 171.59012253 -177.69140625 157.9453125 C-176.10402937 144.65629895 -172.59816009 132.13806673 -167 120 C-166.61392578 119.15308594 -166.22785156 118.30617188 -165.83007812 117.43359375 C-160.63202407 106.07974611 -155.5329394 95.01472176 -148 85 C-147.23171875 83.95070313 -146.4634375 82.90140625 -145.671875 81.8203125 C-139.93110931 74.0864315 -133.65790058 66.95123022 -127 60 C-126.52304688 59.49581543 -126.04609375 58.99163086 -125.5546875 58.47216797 C-118.27814859 50.80894133 -110.61414575 44.12070641 -102 38 C-101.42411133 37.59040039 -100.84822266 37.18080078 -100.25488281 36.75878906 C-71.76412751 16.71669267 -35.45856405 -0.24101173 0 0 Z " fill="#949493" transform="translate(1371,6)"/>
<path d="M0 0 C37.95 0 75.9 0 115 0 C118.59246976 14.36987903 120.34464248 27.46881655 120.26074219 42.15136719 C120.25003953 44.36681679 120.26070517 46.58144994 120.2734375 48.796875 C120.31420168 89.22907628 107.9943947 133.69660642 79 163 C72.50823105 169.18765004 67.53507537 173.58411398 58.1875 173.5 C57.47553467 173.49572998 56.76356934 173.49145996 56.0300293 173.48706055 C50.07764312 173.29412442 46.32716214 172.01569546 42 168 C40.7625 166.88625 40.7625 166.88625 39.5 165.75 C38.675 164.8425 37.85 163.935 37 163 C36.12601563 162.07960937 36.12601563 162.07960937 35.234375 161.140625 C20.08361965 144.79689679 8.81029935 124.47593089 3 103 C2.77086914 102.15791992 2.54173828 101.31583984 2.30566406 100.44824219 C-0.53277177 89.7913132 -2.60994581 79.25507883 -3.640625 68.2734375 C-3.88395441 64.99678718 -3.88395441 64.99678718 -5 62 C-5.27166039 57.08870935 -5.24402127 52.16806334 -5.25 47.25 C-5.25167175 46.53458038 -5.25334351 45.81916077 -5.25506592 45.08206177 C-5.25720707 29.77690798 -4.22074107 14.77259374 0 0 Z " fill="#949494" transform="translate(1082,0)"/>
<path d="M0 0 C0 41.25 0 82.5 0 125 C-45.44619423 125 -45.44619423 125 -65 120 C-65.92425781 119.76474609 -66.84851562 119.52949219 -67.80078125 119.28710938 C-94.22706052 112.34590867 -115.84682081 101.06478199 -135.4375 81.875 C-136.02926025 81.30112549 -136.62102051 80.72725098 -137.23071289 80.13598633 C-142.42538422 74.93088842 -146.56239828 69.82501197 -146.625 62.125 C-146.34682711 55.5306661 -144.3165335 51.8703529 -140 47 C-139.17242188 46.06414062 -138.34484375 45.12828125 -137.4921875 44.1640625 C-112.9464293 17.63846058 -76.37757208 5.38896541 -41.37329102 1.29370117 C-26.39575818 -0.55980896 -18.47186519 0 0 0 Z " fill="#949494" transform="translate(1371,196)"/>
<path d="M0 0 C3.50531166 2.54211298 6.40972184 5.367427 9.24609375 8.62890625 C9.78105469 9.2115625 10.31601563 9.79421875 10.8671875 10.39453125 C18.39838616 19.33430821 20.66317354 32.12748375 20.5234375 43.5703125 C19.30894037 56.96399207 12.74411348 69.23284596 3.09765625 78.3984375 C-6.20529048 85.67512597 -17.39770709 89.02167945 -29.06640625 88.94140625 C-29.90800293 88.9364917 -30.74959961 88.93157715 -31.61669922 88.92651367 C-44.44345917 88.68456956 -55.72941654 83.89145204 -64.75390625 74.62890625 C-73.90684965 63.68844685 -79.7128563 50.99252706 -79.04296875 36.5546875 C-77.68969476 22.85736026 -71.43610832 10.95951779 -60.734375 2.140625 C-42.13653863 -11.74964279 -19.70967613 -12.58265724 0 0 Z " fill="#959595" transform="translate(1168.75390625,218.37109375)"/>
<path d="M0 0 C2.94921761 1.41196612 5.67323465 3.01157722 8.4140625 4.79296875 C9.67331543 5.60918701 9.67331543 5.60918701 10.95800781 6.44189453 C13.65159867 8.20490942 16.337584 9.97913256 19.0234375 11.75390625 C21.82097005 13.60057144 24.61370382 15.39093285 27.5390625 17.02734375 C30.11368712 18.54466575 31.99862573 19.79180507 34 22 C34.40068054 24.35447693 34.40068054 24.35447693 34.2956543 27.03295898 C34.26176605 28.01223358 34.22787781 28.99150818 34.19296265 30.00045776 C33.89528222 34.62780417 33.48117478 39.23411444 33.01953125 43.84765625 C31.73331967 58.04282844 31.65007009 72.19309509 31.6875 86.4375 C31.6885282 87.78668199 31.68936015 89.13586415 31.69000244 90.48504639 C31.72069245 120.8562809 33.05601797 151.18709463 36.37142944 181.38796997 C36.45333527 182.15438812 36.53524109 182.92080627 36.61962891 183.71044922 C36.72979843 184.70345535 36.72979843 184.70345535 36.8421936 185.71652222 C37.05556952 188.80409766 37 191.90506036 37 195 C24.79 195 12.58 195 0 195 C-1.61800385 182.71787984 -3.14657112 170.47501105 -4.125 158.125 C-4.20024902 157.17826416 -4.27549805 156.23152832 -4.35302734 155.25610352 C-5.46146178 140.59861491 -6.16491825 125.97483179 -6.23828125 111.27734375 C-6.24306299 110.52308735 -6.24784473 109.76883095 -6.25277138 108.99171829 C-6.2881729 103.30698513 -6.30385266 97.62233021 -6.3125 91.9375 C-6.31423973 91.10505138 -6.31597946 90.27260277 -6.31777191 89.41492844 C-6.3733658 59.29179418 -5.28077303 29.73366616 0 0 Z " fill="#949494" transform="translate(697,462)"/>
<path d="M0 0 C7.60541843 1.1165673 14.41534094 2.96901686 21.5 5.9375 C22.91406128 6.52422485 22.91406128 6.52422485 24.35668945 7.12280273 C38.17367044 13.02550595 51.2123778 20.67046015 63 30 C63.90878906 30.71800781 64.81757812 31.43601562 65.75390625 32.17578125 C68.53457377 34.41501142 71.27460589 36.69389729 74 39 C74.85722656 39.72058594 75.71445312 40.44117188 76.59765625 41.18359375 C82.8286514 46.5863577 87.96252012 52.48509669 93 59 C93.72960937 59.90234375 94.45921875 60.8046875 95.2109375 61.734375 C105.51667596 74.82447087 112.67782463 89.27938297 118 105 C118.33902344 105.89589844 118.67804688 106.79179687 119.02734375 107.71484375 C120.86807179 112.6771751 121.28876707 116.705937 121 122 C115.81421795 122.22024557 111.45693817 121.55016092 106.5625 119.9375 C105.52706055 119.60250488 105.52706055 119.60250488 104.47070312 119.26074219 C86.43065793 113.25011969 69.22879921 104.72404284 55 92 C53.74123047 90.90365234 53.74123047 90.90365234 52.45703125 89.78515625 C42.80245764 81.26817581 34.31836124 72.61547557 27 62 C26.43925781 61.24589844 25.87851562 60.49179688 25.30078125 59.71484375 C13.47323796 43.64151569 0 20.63866309 0 0 Z " fill="#030404" transform="translate(927,45)"/>
<path d="M0 0 C1.02456299 0.33257812 1.02456299 0.33257812 2.06982422 0.671875 C13.97990903 4.63326651 25.54143515 10.02762343 36 17 C34.53523401 21.62447548 30.76128425 23.21752147 26.75 25.375 C26.03634277 25.7663916 25.32268555 26.1577832 24.58740234 26.56103516 C12.02674431 33.33516634 -0.79726655 37.79226114 -14.625 41.125 C-15.32987549 41.29596191 -16.03475098 41.46692383 -16.76098633 41.64306641 C-26.76712911 43.98714236 -36.575712 44.24158933 -46.8125 44.25 C-47.54954163 44.25067474 -48.28658325 44.25134949 -49.04595947 44.25204468 C-60.61203042 44.23524038 -71.70466126 43.61235242 -83 41 C-84.13719482 40.75056641 -84.13719482 40.75056641 -85.29736328 40.49609375 C-103.35839276 36.46511383 -120.28514271 29.78275884 -136 20 C-136 19.01 -136 18.02 -136 17 C-93.38755542 -5.07220926 -46.81008237 -15.23999969 0 0 Z " fill="#030303" transform="translate(974,240)"/>
<path d="M0 0 C0.66 0 1.32 0 2 0 C3.58626141 2.83170323 5.16845593 5.66565978 6.75 8.5 C7.1934375 9.29148437 7.636875 10.08296875 8.09375 10.8984375 C9.40923197 13.25856692 10.70972841 15.62600078 12 18 C12.36150146 18.66322266 12.72300293 19.32644531 13.09545898 20.00976562 C15.87563398 25.31608947 17.76458469 30.79515413 19.5625 36.5 C19.85318359 37.37914062 20.14386719 38.25828125 20.44335938 39.1640625 C25.1136486 53.83315887 26.55653662 67.83902342 26.4375 83.125 C26.43379395 83.98094757 26.43008789 84.83689514 26.42626953 85.71878052 C26.34365746 99.14809319 25.66153356 112.00538798 22 125 C21.73687012 125.94230469 21.47374023 126.88460937 21.20263672 127.85546875 C16.73497938 143.32918858 10.30708644 157.67681729 3 172 C1.68 172 0.36 172 -1 172 C-9.29381251 158.40676444 -15.57336235 144.6058869 -19 129 C-19.86042557 125.52987527 -20.75464579 122.06821263 -21.64331055 118.60522461 C-23.44366306 111.46577184 -24.17593561 104.82432343 -24.23828125 97.4921875 C-24.246353 96.57148468 -24.25442474 95.65078186 -24.26274109 94.70217896 C-24.27654222 92.7505275 -24.28728205 90.7988523 -24.29516602 88.84716797 C-24.30657626 86.89071355 -24.32684931 84.93428746 -24.35668945 82.97802734 C-24.74770158 57.27607935 -19.25402195 34.62684185 -7 12 C-6.66613281 11.38302246 -6.33226562 10.76604492 -5.98828125 10.13037109 C-2.03131459 2.89874082 -2.03131459 2.89874082 0 0 Z " fill="#030303" transform="translate(1139,387)"/>
<path d="M0 0 C23.56533428 2.45037768 47.27423853 14.57202242 65 30 C65.80695313 30.69738281 66.61390625 31.39476562 67.4453125 32.11328125 C90.12186861 52.124098 105.29891807 74.38627901 115.375 103 C115.89416992 104.46928955 115.89416992 104.46928955 116.42382812 105.96826172 C118.14672108 110.9962434 119.48521895 115.70510915 120 121 C83.7603259 117.01912671 49.10831694 90.37694087 26.71459961 62.9909668 C20.89091039 55.54249755 16.39462476 47.33793432 12 39 C11.4946875 38.05898438 10.989375 37.11796875 10.46875 36.1484375 C4.83670827 25.33079638 -0.4564369 12.36944007 0 0 Z " fill="#030303" transform="translate(1232,350)"/>
<path d="M0 0 C-0.79592361 14.85724064 -7.01027452 28.13113103 -14 41 C-14.54398438 42.02609375 -15.08796875 43.0521875 -15.6484375 44.109375 C-23.21441536 57.76504237 -33.20139574 69.80085404 -44 81 C-44.78632812 81.84949219 -45.57265625 82.69898438 -46.3828125 83.57421875 C-64.61416036 102.73819332 -90.6889741 117.37446494 -117 121 C-117.99 121 -118.98 121 -120 121 C-120.35448725 95.62884122 -102.87295285 69.1992957 -86.140625 51.296875 C-84.0611469 49.06561017 -82.09768441 46.76302227 -80.125 44.4375 C-75.5773162 39.32360261 -70.39421156 35.1857917 -65 31 C-64.09636719 30.26910156 -63.19273438 29.53820312 -62.26171875 28.78515625 C-53.76528995 22.09847853 -44.57711757 16.96850021 -35 12 C-34.34064453 11.65662598 -33.68128906 11.31325195 -33.00195312 10.95947266 C-23.32649879 5.99443688 -11.07707854 0 0 0 Z " fill="#030303" transform="translate(1352,46)"/>
<path d="M0 0 C0.50034021 7.68776707 -1.13488764 13.3770036 -3.9375 20.5 C-4.34427979 21.55300293 -4.75105957 22.60600586 -5.17016602 23.69091797 C-12.67775373 42.69201359 -22.7994755 59.23506674 -37 74 C-37.46744629 74.49854492 -37.93489258 74.99708984 -38.41650391 75.51074219 C-50.92579792 88.8253903 -64.89120152 98.50246519 -81 107 C-81.59135742 107.31952637 -82.18271484 107.63905273 -82.79199219 107.96826172 C-89.64553337 111.66561769 -96.55792795 114.73944801 -103.875 117.375 C-104.56456787 117.62596436 -105.25413574 117.87692871 -105.96459961 118.13549805 C-110.64511248 119.75240249 -115.07018632 120.52576736 -120 121 C-113.590665 81.26212302 -88.16377152 46.31312061 -56.16015625 22.90625 C-42.95141333 13.53171584 -28.30457375 6.69252702 -12.8125 2.0625 C-12.10569092 1.85085205 -11.39888184 1.6392041 -10.6706543 1.42114258 C-7.03211668 0.39126851 -3.78425869 -0.24248648 0 0 Z " fill="#030303" transform="translate(1048,350)"/>
<path d="M0 0 C12.87 0 25.74 0 39 0 C42.37361443 8.99630515 42.37361443 8.99630515 42.9140625 13.015625 C43.03523438 13.87414063 43.15640625 14.73265625 43.28125 15.6171875 C43.3946875 16.48601563 43.508125 17.35484375 43.625 18.25 C43.86554063 20.00543479 44.1076691 21.7606529 44.3515625 23.515625 C44.45291504 24.28165039 44.55426758 25.04767578 44.65869141 25.83691406 C44.95148257 27.9689359 44.95148257 27.9689359 45.52783203 29.87207031 C46.58059839 34.61659543 46.22626859 39.62081741 46.24023438 44.45996094 C46.24983541 46.46561647 46.28098046 48.47113167 46.3125 50.4765625 C46.34570759 58.82827099 45.29395042 65.99859125 43 74 C42.56336622 76.3505452 42.14349356 78.70434932 41.75 81.0625 C39.11617627 94.31265938 33.98603913 106.58750045 27.8125 118.5625 C27.39669678 119.3781543 26.98089355 120.19380859 26.55249023 121.03417969 C26.14973877 121.78731445 25.7469873 122.54044922 25.33203125 123.31640625 C24.97858643 123.98099854 24.6251416 124.64559082 24.26098633 125.33032227 C22.74767107 127.33410988 21.29547409 128.04705335 19 129 C15.61190478 125.01898811 13.03713023 120.85422288 10.5 116.3125 C10.12230469 115.65572266 9.74460937 114.99894531 9.35546875 114.32226562 C4.30827116 105.34657919 1.29001423 96.10450327 -1.125 86.125 C-1.37636719 85.12597656 -1.62773438 84.12695312 -1.88671875 83.09765625 C-4.84869785 71.07915468 -6.34199173 59.77167856 -6.25 47.375 C-6.24323242 46.05628906 -6.23646484 44.73757812 -6.22949219 43.37890625 C-6.06568883 27.8518721 -4.32644025 15.14254086 0 0 Z " fill="#030403" transform="translate(1120,0)"/>
<path d="M0 0 C0.06993164 0.648479 0.13986328 1.29695801 0.21191406 1.96508789 C1.60974952 14.65684956 3.22611781 26.77617956 7 39 C7.46194735 40.58526563 7.92142596 42.17125199 8.37890625 43.7578125 C12.97929089 59.5841109 18.28072808 74.94320219 25 90 C25.42055664 90.99314209 25.42055664 90.99314209 25.84960938 92.00634766 C29.02657016 99.40879837 32.97859449 106.3445758 36.9296875 113.35546875 C37.71472656 114.76892578 37.71472656 114.76892578 38.515625 116.2109375 C39.23153809 117.48396729 39.23153809 117.48396729 39.96191406 118.78271484 C41 121 41 121 41 124 C41.66 124 42.32 124 43 124 C43 124.99 43 125.98 43 127 C29.14 127 15.28 127 1 127 C-5.40943878 114.18112245 -5.40943878 114.18112245 -8.01171875 107.40234375 C-9.003878 104.99057324 -10.15204167 102.73976759 -11.375 100.4375 C-16.51579078 90.3931857 -19.61380548 79.25429948 -23.1328125 68.56640625 C-23.89427706 66.31288277 -24.706685 64.09394302 -25.5625 61.875 C-29.13319772 52.39817525 -31.01506389 42.91043428 -32.66357422 32.95361328 C-33.09352264 30.45691718 -33.6136214 27.98113322 -34.125 25.5 C-35.50389595 18.08843428 -35.66514513 10.51661059 -36 3 C-35.12432373 2.91697632 -35.12432373 2.91697632 -34.23095703 2.83227539 C-31.52894653 2.57594448 -28.82697319 2.31922387 -26.125 2.0625 C-25.2071875 1.97548828 -24.289375 1.88847656 -23.34375 1.79882812 C-22.42851563 1.71181641 -21.51328125 1.62480469 -20.5703125 1.53515625 C-19.64766602 1.44766113 -18.72501953 1.36016602 -17.77441406 1.27001953 C-15.93190212 1.09069727 -14.09007126 0.90422653 -12.24902344 0.71044922 C-11.38051758 0.61908691 -10.51201172 0.52772461 -9.6171875 0.43359375 C-8.46259033 0.3087561 -8.46259033 0.3087561 -7.28466797 0.18139648 C-4.84750418 -0.01210776 -2.44381002 -0.02994733 0 0 Z " fill="#959595" transform="translate(925,530)"/>
<path d="M0 0 C0 16.5 0 33 0 50 C-35.4924141 50.57245829 -73.2730302 48.9391415 -102 25 C-88.73102065 10.61731735 -64.62106399 4.47252565 -46 1 C-44.2984375 0.66355469 -44.2984375 0.66355469 -42.5625 0.3203125 C-29.37846849 -1.86703818 -12.99776779 -3.24944195 0 0 Z " fill="#020303" transform="translate(1371,234)"/>
<path d="M0 0 C2.77741348 1.30130562 5.11423226 2.74382922 7.51171875 4.65234375 C8.51150757 5.43786621 8.51150757 5.43786621 9.53149414 6.23925781 C10.24297607 6.79967773 10.95445801 7.36009766 11.6875 7.9375 C33.65830247 24.96150071 58.76535974 39.65700311 85 49 C85 49.33 85 49.66 85 50 C74.97662195 50.25659332 64.95404385 50.45117647 54.92803192 50.56993389 C50.27065292 50.6269784 45.6155448 50.70413888 40.95947266 50.82983398 C36.45289864 50.95071056 31.94848617 51.01539971 27.44041443 51.04364967 C25.73398345 51.06373853 24.02765055 51.10296224 22.32215881 51.16303062 C8.45609783 51.63129273 0.55247411 47.82178623 -10 39 C-11.25571671 37.98258864 -12.51241074 36.96638219 -13.7701416 35.95146179 C-16.56009225 33.68693729 -19.29302064 31.36348008 -22 29 C-21.41441938 25.36452033 -20.00033469 23.59162511 -17.5 20.9375 C-11.33593878 14.23020317 -5.68232413 7.11570319 0 0 Z " fill="#969696" transform="translate(1178,607)"/>
<path d="M0 0 C5.06521117 5.29544804 8.00859746 10.97654511 8.3125 18.375 C7.84975323 26.99670293 4.87620031 33.66811404 -1.515625 39.47265625 C-8.28628454 44.94713097 -14.73577618 45.65415311 -23.25 44.875 C-32.02783621 42.87772422 -36.7103749 38.20019266 -41.56640625 30.89453125 C-44.86260385 25.14054171 -45.0399636 20.00820239 -43.8125 13.5859375 C-41.80284017 6.27579988 -37.21667899 0.77978873 -31.0625 -3.5625 C-20.5719622 -9.39057656 -9.40067935 -6.14659804 0 0 Z " fill="#949494" transform="translate(1029.25,546.125)"/>
<path d="M0 0 C6.88248335 3.95043353 11.57914587 9.71138718 14.625 17 C15.0234375 20.47265625 15.0234375 20.47265625 15 24.0625 C15.01160156 25.84333984 15.01160156 25.84333984 15.0234375 27.66015625 C14.1754414 34.76835883 8.68744309 40.24786428 3.625 45 C-2.53606679 49.23502946 -9.06533039 49.9897437 -16.375 49 C-24.11185072 47.19285239 -28.97756421 43.56699297 -33.375 37 C-37.06467255 30.92353631 -38.60119953 25.07506275 -37.375 18 C-34.93545632 10.49025263 -30.7132254 5.56352229 -24.375 1 C-23.488125 0.360625 -22.60125 -0.27875 -21.6875 -0.9375 C-14.49396967 -3.24485879 -6.91819406 -3.1311704 0 0 Z " fill="#929392" transform="translate(1279.375,542)"/>
<path d="M0 0 C6.28274099 3.27654134 11.36016745 8.25704805 15.26953125 14.12109375 C16.06585421 22.88064631 16.79609374 32.75234376 11.26953125 40.12109375 C6.50787043 45.36821673 1.12401992 49.5551353 -6.109375 50.3984375 C-14.36749168 50.71363279 -21.32578417 48.41192014 -27.73046875 43.12109375 C-33.23555325 36.21998304 -36.32049499 29.70093254 -36.10546875 20.77734375 C-35.08446854 13.54525889 -31.27169481 7.89533647 -25.671875 3.375 C-17.80615953 -1.70527096 -9.06131407 -2.916732 0 0 Z " fill="#949493" transform="translate(839.73046875,105.87890625)"/>
<path d="M0 0 C6.13065852 2.83106833 10.03780811 6.87751308 13.5625 12.5625 C16.02497708 19.39587388 15.70824726 27.71844866 12.9375 34.375 C8.86464012 42.08383859 3.91707513 46.66166289 -4.375 49.4375 C-11.86966649 50.66525876 -18.87227691 49.37686296 -25.375 45.4375 C-31.52373622 40.21931964 -35.58305728 33.52659277 -36.82421875 25.55078125 C-37.27188753 17.78124085 -35.3893626 12.38279911 -30.375 6.4375 C-27.87132042 4.12567326 -25.29651044 2.18804067 -22.375 0.4375 C-21.76140625 0.06367188 -21.1478125 -0.31015625 -20.515625 -0.6953125 C-14.27250343 -3.22446029 -6.20833383 -2.21862237 0 0 Z " fill="#939393" transform="translate(840.375,363.5625)"/>
<path d="M0 0 C4.2521583 2.89146764 7.14155342 5.63918391 9.23046875 10.38671875 C10.44014258 17.88669648 11.44123704 24.60464784 7.16796875 31.26171875 C3.23946741 36.37339225 -1.30010425 40.73997509 -7.87890625 41.6328125 C-16.02583146 41.8122137 -20.74007587 40.45863434 -26.63671875 34.83984375 C-31.2210302 29.79438854 -33.73583311 24.17690405 -33.4296875 17.30859375 C-32.53224132 10.86665133 -30.1717378 6.47054284 -25.14453125 2.26171875 C-17.28327431 -3.5138986 -8.74014772 -4.97194032 0 0 Z " fill="#939393" transform="translate(829.14453125,566.73828125)"/>
<path d="M0 0 C4.6498679 3.42399363 7.55617253 7.55842653 8.71875 13.265625 C9.40164595 20.70393783 9.35601797 27.13475845 4.71875 33.265625 C1.02057733 37.13189642 -2.88473083 40.02440673 -8.26953125 40.56640625 C-21.80334817 40.61411653 -21.80334817 40.61411653 -26.9609375 35.6484375 C-33.038308 28.87318713 -33.98096595 23.13777411 -33.7265625 14.203125 C-33.10931299 8.74533984 -31.39232151 5.8067525 -27.28125 2.265625 C-19.39750697 -3.88369456 -8.85264457 -5.15194889 0 0 Z " fill="#949493" transform="translate(696.28125,239.734375)"/>
<path d="M0 0 C0.33 0 0.66 0 1 0 C1 12.54 1 25.08 1 38 C-4.61 38 -10.22 38 -16 38 C-14.56857017 33.70571052 -13.09217114 29.78607668 -11.25 25.68359375 C-10.7240625 24.50732422 -10.198125 23.33105469 -9.65625 22.11914062 C-9.10432363 20.89185648 -8.5522389 19.66464354 -8 18.4375 C-6.91529263 16.02014306 -5.83248816 13.60194659 -4.75 11.18359375 C-4.27046875 10.11681396 -3.7909375 9.05003418 -3.296875 7.95092773 C-2.14057036 5.31985578 -1.04835875 2.6756019 0 0 Z " fill="#080908" transform="translate(1370,619)"/>
<path d="M0 0 C0.66 0.33 1.32 0.66 2 1 C-5.26 8.26 -12.52 15.52 -20 23 C-20.66 22.67 -21.32 22.34 -22 22 C-8.38735178 7.03853755 -8.38735178 7.03853755 -1 1 C-0.67 0.67 -0.34 0.34 0 0 Z " fill="#808180" transform="translate(958,352)"/>
<path d="M0 0 C0.66 0.33 1.32 0.66 2 1 C-4.93 7.93 -11.86 14.86 -19 22 C-19.66 21.67 -20.32 21.34 -21 21 C-7.04255319 5.65957447 -7.04255319 5.65957447 0 0 Z " fill="#191919" transform="translate(1284,79)"/>
<path d="M0 0 C0.66 0.33 1.32 0.66 2 1 C-1.63 4.63 -5.26 8.26 -9 12 C-9.66 11.67 -10.32 11.34 -11 11 C-7.6189962 6.86378916 -4.33409466 3.18683431 0 0 Z " fill="#808080" transform="translate(1110,219)"/>
<path d="M0 0 C0.99 0.33 1.98 0.66 3 1 C0.03839944 4.12613393 -2.09567131 6.04783565 -6 8 C-4.02 5.36 -2.04 2.72 0 0 Z " fill="#706F6F" transform="translate(1178,607)"/>
<path d="M0 0 C0.66 0.33 1.32 0.66 2 1 C-0.64 3.64 -3.28 6.28 -6 9 C-6 6 -6 6 -3.5625 3.375 C-2.716875 2.59125 -1.87125 1.8075 -1 1 C-0.67 0.67 -0.34 0.34 0 0 Z " fill="#7B7B7B" transform="translate(806,567)"/>
<path d="M0 0 C0.66 0 1.32 0 2 0 C0.55746343 3.36591866 -1.33264727 5.51047079 -4 8 C-4.66 7.67 -5.32 7.34 -6 7 C-5.04882866 5.8274869 -4.08882991 4.66212985 -3.125 3.5 C-2.59132813 2.8503125 -2.05765625 2.200625 -1.5078125 1.53125 C-0.76144531 0.77328125 -0.76144531 0.77328125 0 0 Z " fill="#838382" transform="translate(565,210)"/>
<path d="M0 0 C0.33 0.99 0.66 1.98 1 3 C-0.65 4.65 -2.3 6.3 -4 8 C-4.66 7.67 -5.32 7.34 -6 7 C-4.02 4.69 -2.04 2.38 0 0 Z " fill="#7A7A79" transform="translate(1239,71)"/>
</svg>
